<svg xmlns="http://www.w3.org/2000/svg" xmlns:xlink="http://www.w3.org/1999/xlink" width="900" height="868.4"><rect width="900" height="868.4" rx="0" ry="0" class="a"/><svg height="868.4" viewBox="0 0 90 86.84" width="900" xmlns="http://www.w3.org/2000/svg" xmlns:xlink="http://www.w3.org/1999/xlink"><style>@keyframes j{0%{transform:translateX(0)}.21%{transform:translateX(-90px)}.22%{transform:translateX(-180px)}4.62%{transform:translateX(-270px)}5.05%{transform:translateX(-360px)}6.12%{transform:translateX(-450px)}7.14%{transform:translateX(-540px)}11.24%{transform:translateX(-630px)}13.12%{transform:translateX(-720px)}14.76%{transform:translateX(-810px)}15.17%{transform:translateX(-900px)}16.17%{transform:translateX(-990px)}16.92%{transform:translateX(-1080px)}18.24%{transform:translateX(-1170px)}20.04%{transform:translateX(-1260px)}22.08%{transform:translateX(-1350px)}23.12%{transform:translateX(-1440px)}23.53%{transform:translateX(-1530px)}27.32%{transform:translateX(-1620px)}27.86%{transform:translateX(-1710px)}28.4%{transform:translateX(-1800px)}29.16%{transform:translateX(-1890px)}33.97%{transform:translateX(-1980px)}35.77%{transform:translateX(-2070px)}38.45%{transform:translateX(-2160px)}38.48%{transform:translateX(-2340px)}38.49%{transform:translateX(-2430px)}46.78%{transform:translateX(-2520px)}47.41%{transform:translateX(-2610px)}48.67%{transform:translateX(-2700px)}49.23%{transform:translateX(-2790px)}49.71%{transform:translateX(-2880px)}50.97%{transform:translateX(-2970px)}66.65%{transform:translateX(-3060px)}67.6%{transform:translateX(-3150px)}69.59%{transform:translateX(-3240px)}73.53%{transform:translateX(-3330px)}73.55%{transform:translateX(-3420px)}73.56%{transform:translateX(-3510px)}90%{transform:translateX(-3600px)}90.01%{transform:translateX(-3780px)}to{transform:translateX(-3870px)}}.a{fill:#282d35}.e,.f,.g{fill:#b9c0cb;white-space:pre}.f,.g{fill:#66c2cd}.g{fill:#6f7783}</style><g font-family="Monaco,Consolas,Menlo,'Bitstream Vera Sans Mono','Powerline Symbols',monospace" font-size="1.67"><defs><symbol id="1"><path fill="#b9c0cb" d="M0 0h1v2.171H0z"/><text y="1.67" style="white-space:pre" fill="#282d35" font-weight="700">%</text></symbol><symbol id="2"><text y="1.67" class="e">$</text></symbol><symbol id="3"><text y="1.67" class="e">$</text><text x="2.004" y="1.67" class="e">cat</text></symbol><symbol id="4"><text y="1.67" class="e">$</text><text x="2.004" y="1.67" class="e">cat</text><text x="6.012" y="1.67" class="e">tests/nqueens.sat</text></symbol><symbol id="5"><text y="1.67" class="e">p</text><text x="2.004" y="1.67" class="e">cnf</text><text x="6.012" y="1.67" class="e">12</text><text x="9.018" y="1.67" class="e">26</text></symbol><symbol id="6"><text y="1.67" class="e">-1</text><text x="3.006" y="1.67" class="e">2</text><text x="5.01" y="1.67" class="e">0</text></symbol><symbol id="7"><text y="1.67" class="e">-3</text><text x="3.006" y="1.67" class="e">4</text><text x="5.01" y="1.67" class="e">0</text></symbol><symbol id="8"><text y="1.67" class="e">-5</text><text x="3.006" y="1.67" class="e">6</text><text x="5.01" y="1.67" class="e">0</text></symbol><symbol id="9"><text y="1.67" class="e">-3</text><text x="3.006" y="1.67" class="e">-7</text><text x="6.012" y="1.67" class="e">0</text></symbol><symbol id="10"><text y="1.67" class="e">1</text><text x="2.004" y="1.67" class="e">-4</text><text x="5.01" y="1.67" class="e">-7</text><text x="8.016" y="1.67" class="e">0</text></symbol><symbol id="11"><text y="1.67" class="e">2</text><text x="2.004" y="1.67" class="e">-7</text><text x="5.01" y="1.67" class="e">0</text></symbol><symbol id="12"><text y="1.67" class="e">-1</text><text x="3.006" y="1.67" class="e">-8</text><text x="6.012" y="1.67" class="e">0</text></symbol><symbol id="13"><text y="1.67" class="e">-2</text><text x="3.006" y="1.67" class="e">3</text><text x="5.01" y="1.67" class="e">-8</text><text x="8.016" y="1.67" class="e">0</text></symbol><symbol id="14"><text y="1.67" class="e">4</text><text x="2.004" y="1.67" class="e">-8</text><text x="5.01" y="1.67" class="e">0</text></symbol><symbol id="15"><text y="1.67" class="e">7</text><text x="2.004" y="1.67" class="e">8</text><text x="4.008" y="1.67" class="e">0</text></symbol><symbol id="16"><text y="1.67" class="e">-5</text><text x="3.006" y="1.67" class="e">-9</text><text x="6.012" y="1.67" class="e">0</text></symbol><symbol id="17"><text y="1.67" class="e">1</text><text x="2.004" y="1.67" class="e">-6</text><text x="5.01" y="1.67" class="e">-9</text><text x="8.016" y="1.67" class="e">0</text></symbol><symbol id="18"><text y="1.67" class="e">2</text><text x="2.004" y="1.67" class="e">-9</text><text x="5.01" y="1.67" class="e">0</text></symbol><symbol id="19"><text y="1.67" class="e">-1</text><text x="3.006" y="1.67" class="e">-10</text><text x="7.014" y="1.67" class="e">0</text></symbol><symbol id="20"><text y="1.67" class="e">-2</text><text x="3.006" y="1.67" class="e">5</text><text x="5.01" y="1.67" class="e">-10</text><text x="9.018" y="1.67" class="e">0</text></symbol><symbol id="21"><text y="1.67" class="e">6</text><text x="2.004" y="1.67" class="e">-10</text><text x="6.012" y="1.67" class="e">0</text></symbol><symbol id="22"><text y="1.67" class="e">9</text><text x="2.004" y="1.67" class="e">10</text><text x="5.01" y="1.67" class="e">0</text></symbol><symbol id="23"><text y="1.67" class="e">-5</text><text x="3.006" y="1.67" class="e">-11</text><text x="7.014" y="1.67" class="e">0</text></symbol><symbol id="24"><text y="1.67" class="e">3</text><text x="2.004" y="1.67" class="e">-6</text><text x="5.01" y="1.67" class="e">-11</text><text x="9.018" y="1.67" class="e">0</text></symbol><symbol id="25"><text y="1.67" class="e">4</text><text x="2.004" y="1.67" class="e">-11</text><text x="6.012" y="1.67" class="e">0</text></symbol><symbol id="26"><text y="1.67" class="e">-3</text><text x="3.006" y="1.67" class="e">-12</text><text x="7.014" y="1.67" class="e">0</text></symbol><symbol id="27"><text y="1.67" class="e">-4</text><text x="3.006" y="1.67" class="e">5</text><text x="5.01" y="1.67" class="e">-12</text><text x="9.018" y="1.67" class="e">0</text></symbol><symbol id="28"><text y="1.67" class="e">6</text><text x="2.004" y="1.67" class="e">-12</text><text x="6.012" y="1.67" class="e">0</text></symbol><symbol id="29"><text y="1.67" class="e">11</text><text x="3.006" y="1.67" class="e">12</text><text x="6.012" y="1.67" class="e">0</text></symbol><symbol id="30"><text y="1.67" class="e">-2</text><text x="3.006" y="1.67" class="e">-4</text><text x="6.012" y="1.67" class="e">-6</text><text x="9.018" y="1.67" class="e">0</text></symbol><symbol id="31"><text y="1.67" class="e">1</text><text x="2.004" y="1.67" class="e">3</text><text x="4.008" y="1.67" class="e">5</text><text x="6.012" y="1.67" class="e">0</text></symbol><symbol id="32"><text y="1.67" class="e">$</text><text x="2.004" y="1.67" class="e">./spoon_q</text><text x="12.024" y="1.67" class="e">tests/nqueens.sat</text></symbol><symbol id="33"><text y="1.67" class="f">Info:</text><text x="6.012" y="1.67" class="e">Generating</text><text x="17.034" y="1.67" class="e">clauses</text><text x="25.05" y="1.67" class="e">from</text><text x="30.06" y="1.67" class="e">DIMACS</text><text x="37.074" y="1.67" class="e">file...</text><text x="46.092" y="1.67" class="g">(src/cli.rs:98)</text></symbol><symbol id="34"><text y="1.67" class="f">Info:</text><text x="6.012" y="1.67" class="e">Solving</text><text x="14.028" y="1.67" class="e">using</text><text x="20.04" y="1.67" class="e">internal</text><text x="29.058" y="1.67" class="e">solver...</text><text x="40.08" y="1.67" class="g">(src/cli.rs:64)</text></symbol><symbol id="35"><text y="1.67" class="e">1</text><text x="2.004" y="1.67" class="e">=</text><text x="4.008" y="1.67" class="e">true</text></symbol><symbol id="36"><text y="1.67" class="e">2</text><text x="2.004" y="1.67" class="e">=</text><text x="4.008" y="1.67" class="e">true</text></symbol><symbol id="37"><text y="1.67" class="e">3</text><text x="2.004" y="1.67" class="e">=</text><text x="4.008" y="1.67" class="e">false</text></symbol><symbol id="38"><text y="1.67" class="e">4</text><text x="2.004" y="1.67" class="e">=</text><text x="4.008" y="1.67" class="e">false</text></symbol><symbol id="39"><text y="1.67" class="e">5</text><text x="2.004" y="1.67" class="e">=</text><text x="4.008" y="1.67" class="e">false</text></symbol><symbol id="40"><text y="1.67" class="e">6</text><text x="2.004" y="1.67" class="e">=</text><text x="4.008" y="1.67" class="e">true</text></symbol><symbol id="41"><text y="1.67" class="e">7</text><text x="2.004" y="1.67" class="e">=</text><text x="4.008" y="1.67" class="e">true</text></symbol><symbol id="42"><text y="1.67" class="e">8</text><text x="2.004" y="1.67" class="e">=</text><text x="4.008" y="1.67" class="e">false</text></symbol><symbol id="43"><text y="1.67" class="e">9</text><text x="2.004" y="1.67" class="e">=</text><text x="4.008" y="1.67" class="e">true</text></symbol><symbol id="44"><text y="1.67" class="e">10</text><text x="3.006" y="1.67" class="e">=</text><text x="5.01" y="1.67" class="e">false</text></symbol><symbol id="45"><text y="1.67" class="e">11</text><text x="3.006" y="1.67" class="e">=</text><text x="5.01" y="1.67" class="e">false</text></symbol><symbol id="46"><text y="1.67" class="e">12</text><text x="3.006" y="1.67" class="e">=</text><text x="5.01" y="1.67" class="e">true</text></symbol><symbol id="a"><path fill="transparent" d="M0 0h90v40H0z"/></symbol><symbol id="b"><path fill="#6f7683" d="M0 0h1.102v2.171H0z"/></symbol></defs><path class="a" d="M0 0h90v86.84H0z"/><g style="animation-duration:21.068861s;animation-iteration-count:infinite;animation-name:j;animation-timing-function:steps(1,end)"><svg width="3960"><svg><use xlink:href="#a"/><use xlink:href="#b" x="-.004"/></svg><svg x="90"><use xlink:href="#a"/><use xlink:href="#b" x="-.004" y="2.146"/><use xlink:href="#1"/></svg><svg x="180"><use xlink:href="#a"/><use xlink:href="#b" x="1.996" y="2.146"/><use xlink:href="#1"/><use xlink:href="#2" y="2.171"/></svg><svg x="270"><use xlink:href="#a"/><use xlink:href="#b" x="2.996" y="2.146"/><use xlink:href="#1"/><text y="3.841" class="e">$</text><text x="2.004" y="3.841" class="e">c</text></svg><svg x="360"><use xlink:href="#a"/><use xlink:href="#b" x="3.996" y="2.146"/><use xlink:href="#1"/><text y="3.841" class="e">$</text><text x="2.004" y="3.841" class="e">ca</text></svg><svg x="450"><use xlink:href="#a"/><use xlink:href="#b" x="4.996" y="2.146"/><use xlink:href="#1"/><use xlink:href="#3" y="2.171"/></svg><svg x="540"><use xlink:href="#a"/><use xlink:href="#b" x="5.996" y="2.146"/><use xlink:href="#1"/><use xlink:href="#3" y="2.171"/></svg><svg x="630"><use xlink:href="#a"/><use xlink:href="#b" x="6.996" y="2.146"/><use xlink:href="#1"/><text y="3.841" class="e">$</text><text x="2.004" y="3.841" class="e">cat</text><text x="6.012" y="3.841" class="e">/</text></svg><svg x="720"><use xlink:href="#a"/><use xlink:href="#b" x="5.996" y="2.146"/><use xlink:href="#1"/><use xlink:href="#3" y="2.171"/></svg><svg x="810"><use xlink:href="#a"/><use xlink:href="#b" x="6.996" y="2.146"/><use xlink:href="#1"/><text y="3.841" class="e">$</text><text x="2.004" y="3.841" class="e">cat</text><text x="6.012" y="3.841" class="e">t</text></svg><svg x="900"><use xlink:href="#a"/><use xlink:href="#b" x="7.996" y="2.146"/><use xlink:href="#1"/><text y="3.841" class="e">$</text><text x="2.004" y="3.841" class="e">cat</text><text x="6.012" y="3.841" class="e">te</text></svg><svg x="990"><use xlink:href="#a"/><use xlink:href="#b" x="8.996" y="2.146"/><use xlink:href="#1"/><text y="3.841" class="e">$</text><text x="2.004" y="3.841" class="e">cat</text><text x="6.012" y="3.841" class="e">tes</text></svg><svg x="1080"><use xlink:href="#a"/><use xlink:href="#b" x="9.996" y="2.146"/><use xlink:href="#1"/><text y="3.841" class="e">$</text><text x="2.004" y="3.841" class="e">cat</text><text x="6.012" y="3.841" class="e">test</text></svg><svg x="1170"><use xlink:href="#a"/><use xlink:href="#b" x="10.996" y="2.146"/><use xlink:href="#1"/><text y="3.841" class="e">$</text><text x="2.004" y="3.841" class="e">cat</text><text x="6.012" y="3.841" class="e">tests</text></svg><svg x="1260"><use xlink:href="#a"/><use xlink:href="#b" x="11.996" y="2.146"/><use xlink:href="#1"/><text y="3.841" class="e">$</text><text x="2.004" y="3.841" class="e">cat</text><text x="6.012" y="3.841" class="e">tests/</text></svg><svg x="1350"><use xlink:href="#a"/><use xlink:href="#b" x="12.996" y="2.146"/><use xlink:href="#1"/><text y="3.841" class="e">$</text><text x="2.004" y="3.841" class="e">cat</text><text x="6.012" y="3.841" class="e">tests/n</text></svg><svg x="1440"><use xlink:href="#a"/><use xlink:href="#b" x="13.996" y="2.146"/><use xlink:href="#1"/><text y="3.841" class="e">$</text><text x="2.004" y="3.841" class="e">cat</text><text x="6.012" y="3.841" class="e">tests/nq</text></svg><svg x="1530"><use xlink:href="#a"/><use xlink:href="#b" x="14.996" y="2.146"/><use xlink:href="#1"/><text y="3.841" class="e">$</text><text x="2.004" y="3.841" class="e">cat</text><text x="6.012" y="3.841" class="e">tests/nqu</text></svg><svg x="1620"><use xlink:href="#a"/><use xlink:href="#b" x="15.996" y="2.146"/><use xlink:href="#1"/><text y="3.841" class="e">$</text><text x="2.004" y="3.841" class="e">cat</text><text x="6.012" y="3.841" class="e">tests/nque</text></svg><svg x="1710"><use xlink:href="#a"/><use xlink:href="#b" x="16.996" y="2.146"/><use xlink:href="#1"/><text y="3.841" class="e">$</text><text x="2.004" y="3.841" class="e">cat</text><text x="6.012" y="3.841" class="e">tests/nquee</text></svg><svg x="1800"><use xlink:href="#a"/><use xlink:href="#b" x="17.996" y="2.146"/><use xlink:href="#1"/><text y="3.841" class="e">$</text><text x="2.004" y="3.841" class="e">cat</text><text x="6.012" y="3.841" class="e">tests/nqueen</text></svg><svg x="1890"><use xlink:href="#a"/><use xlink:href="#b" x="18.996" y="2.146"/><use xlink:href="#1"/><text y="3.841" class="e">$</text><text x="2.004" y="3.841" class="e">cat</text><text x="6.012" y="3.841" class="e">tests/nqueens</text></svg><svg x="1980"><use xlink:href="#a"/><use xlink:href="#b" x="19.996" y="2.146"/><use xlink:href="#1"/><text y="3.841" class="e">$</text><text x="2.004" y="3.841" class="e">cat</text><text x="6.012" y="3.841" class="e">tests/nqueens.</text></svg><svg x="2070"><use xlink:href="#a"/><use xlink:href="#b" x="23.996" y="2.146"/><use xlink:href="#1"/><use xlink:href="#4" y="2.171"/></svg><svg x="2160"><use xlink:href="#a"/><use xlink:href="#b" x="-.004" y="4.317"/><use xlink:href="#1"/><use xlink:href="#4" y="2.171"/></svg><svg x="2250"><use xlink:href="#a"/><use xlink:href="#b" x="-.004" y="62.934"/><use xlink:href="#1"/><use xlink:href="#4" y="2.171"/><use xlink:href="#5" y="4.342"/><use xlink:href="#6" y="6.513"/><use xlink:href="#7" y="8.684"/><use xlink:href="#8" y="10.855"/><use xlink:href="#9" y="13.026"/><use xlink:href="#10" y="15.197"/><use xlink:href="#11" y="17.368"/><use xlink:href="#12" y="19.539"/><use xlink:href="#13" y="21.71"/><use xlink:href="#14" y="23.881"/><use xlink:href="#15" y="26.052"/><use xlink:href="#16" y="28.223"/><use xlink:href="#17" y="30.394"/><use xlink:href="#18" y="32.565"/><use xlink:href="#19" y="34.736"/><use xlink:href="#20" y="36.907"/><use xlink:href="#21" y="39.078"/><use xlink:href="#22" y="41.249"/><use xlink:href="#23" y="43.42"/><use xlink:href="#24" y="45.591"/><use xlink:href="#25" y="47.762"/><use xlink:href="#26" y="49.933"/><use xlink:href="#27" y="52.104"/><use xlink:href="#28" y="54.275"/><use xlink:href="#29" y="56.446"/><use xlink:href="#30" y="58.617"/><use xlink:href="#31" y="60.788"/></svg><svg x="2340"><use xlink:href="#a"/><use xlink:href="#b" x="-.004" y="65.105"/><use xlink:href="#1"/><use xlink:href="#4" y="2.171"/><use xlink:href="#5" y="4.342"/><use xlink:href="#6" y="6.513"/><use xlink:href="#7" y="8.684"/><use xlink:href="#8" y="10.855"/><use xlink:href="#9" y="13.026"/><use xlink:href="#10" y="15.197"/><use xlink:href="#11" y="17.368"/><use xlink:href="#12" y="19.539"/><use xlink:href="#13" y="21.71"/><use xlink:href="#14" y="23.881"/><use xlink:href="#15" y="26.052"/><use xlink:href="#16" y="28.223"/><use xlink:href="#17" y="30.394"/><use xlink:href="#18" y="32.565"/><use xlink:href="#19" y="34.736"/><use xlink:href="#20" y="36.907"/><use xlink:href="#21" y="39.078"/><use xlink:href="#22" y="41.249"/><use xlink:href="#23" y="43.42"/><use xlink:href="#24" y="45.591"/><use xlink:href="#25" y="47.762"/><use xlink:href="#26" y="49.933"/><use xlink:href="#27" y="52.104"/><use xlink:href="#28" y="54.275"/><use xlink:href="#29" y="56.446"/><use xlink:href="#30" y="58.617"/><use xlink:href="#31" y="60.788"/><use xlink:href="#1" y="62.959"/></svg><svg x="2430"><use xlink:href="#a"/><use xlink:href="#b" x="1.996" y="65.105"/><use xlink:href="#1"/><use xlink:href="#4" y="2.171"/><use xlink:href="#5" y="4.342"/><use xlink:href="#6" y="6.513"/><use xlink:href="#7" y="8.684"/><use xlink:href="#8" y="10.855"/><use xlink:href="#9" y="13.026"/><use xlink:href="#10" y="15.197"/><use xlink:href="#11" y="17.368"/><use xlink:href="#12" y="19.539"/><use xlink:href="#13" y="21.71"/><use xlink:href="#14" y="23.881"/><use xlink:href="#15" y="26.052"/><use xlink:href="#16" y="28.223"/><use xlink:href="#17" y="30.394"/><use xlink:href="#18" y="32.565"/><use xlink:href="#19" y="34.736"/><use xlink:href="#20" y="36.907"/><use xlink:href="#21" y="39.078"/><use xlink:href="#22" y="41.249"/><use xlink:href="#23" y="43.42"/><use xlink:href="#24" y="45.591"/><use xlink:href="#25" y="47.762"/><use xlink:href="#26" y="49.933"/><use xlink:href="#27" y="52.104"/><use xlink:href="#28" y="54.275"/><use xlink:href="#29" y="56.446"/><use xlink:href="#30" y="58.617"/><use xlink:href="#31" y="60.788"/><use xlink:href="#1" y="62.959"/><use xlink:href="#2" y="65.13"/></svg><svg x="2520"><use xlink:href="#a"/><use xlink:href="#b" x="2.996" y="65.105"/><use xlink:href="#1"/><use xlink:href="#4" y="2.171"/><use xlink:href="#5" y="4.342"/><use xlink:href="#6" y="6.513"/><use xlink:href="#7" y="8.684"/><use xlink:href="#8" y="10.855"/><use xlink:href="#9" y="13.026"/><use xlink:href="#10" y="15.197"/><use xlink:href="#11" y="17.368"/><use xlink:href="#12" y="19.539"/><use xlink:href="#13" y="21.71"/><use xlink:href="#14" y="23.881"/><use xlink:href="#15" y="26.052"/><use xlink:href="#16" y="28.223"/><use xlink:href="#17" y="30.394"/><use xlink:href="#18" y="32.565"/><use xlink:href="#19" y="34.736"/><use xlink:href="#20" y="36.907"/><use xlink:href="#21" y="39.078"/><use xlink:href="#22" y="41.249"/><use xlink:href="#23" y="43.42"/><use xlink:href="#24" y="45.591"/><use xlink:href="#25" y="47.762"/><use xlink:href="#26" y="49.933"/><use xlink:href="#27" y="52.104"/><use xlink:href="#28" y="54.275"/><use xlink:href="#29" y="56.446"/><use xlink:href="#30" y="58.617"/><use xlink:href="#31" y="60.788"/><use xlink:href="#1" y="62.959"/><text y="66.8" class="e">$</text><text x="2.004" y="66.8" class="e">.</text></svg><svg x="2610"><use xlink:href="#a"/><use xlink:href="#b" x="3.996" y="65.105"/><use xlink:href="#1"/><use xlink:href="#4" y="2.171"/><use xlink:href="#5" y="4.342"/><use xlink:href="#6" y="6.513"/><use xlink:href="#7" y="8.684"/><use xlink:href="#8" y="10.855"/><use xlink:href="#9" y="13.026"/><use xlink:href="#10" y="15.197"/><use xlink:href="#11" y="17.368"/><use xlink:href="#12" y="19.539"/><use xlink:href="#13" y="21.71"/><use xlink:href="#14" y="23.881"/><use xlink:href="#15" y="26.052"/><use xlink:href="#16" y="28.223"/><use xlink:href="#17" y="30.394"/><use xlink:href="#18" y="32.565"/><use xlink:href="#19" y="34.736"/><use xlink:href="#20" y="36.907"/><use xlink:href="#21" y="39.078"/><use xlink:href="#22" y="41.249"/><use xlink:href="#23" y="43.42"/><use xlink:href="#24" y="45.591"/><use xlink:href="#25" y="47.762"/><use xlink:href="#26" y="49.933"/><use xlink:href="#27" y="52.104"/><use xlink:href="#28" y="54.275"/><use xlink:href="#29" y="56.446"/><use xlink:href="#30" y="58.617"/><use xlink:href="#31" y="60.788"/><use xlink:href="#1" y="62.959"/><text y="66.8" class="e">$</text><text x="2.004" y="66.8" class="e">./</text></svg><svg x="2700"><use xlink:href="#a"/><use xlink:href="#b" x="4.996" y="65.105"/><use xlink:href="#1"/><use xlink:href="#4" y="2.171"/><use xlink:href="#5" y="4.342"/><use xlink:href="#6" y="6.513"/><use xlink:href="#7" y="8.684"/><use xlink:href="#8" y="10.855"/><use xlink:href="#9" y="13.026"/><use xlink:href="#10" y="15.197"/><use xlink:href="#11" y="17.368"/><use xlink:href="#12" y="19.539"/><use xlink:href="#13" y="21.71"/><use xlink:href="#14" y="23.881"/><use xlink:href="#15" y="26.052"/><use xlink:href="#16" y="28.223"/><use xlink:href="#17" y="30.394"/><use xlink:href="#18" y="32.565"/><use xlink:href="#19" y="34.736"/><use xlink:href="#20" y="36.907"/><use xlink:href="#21" y="39.078"/><use xlink:href="#22" y="41.249"/><use xlink:href="#23" y="43.42"/><use xlink:href="#24" y="45.591"/><use xlink:href="#25" y="47.762"/><use xlink:href="#26" y="49.933"/><use xlink:href="#27" y="52.104"/><use xlink:href="#28" y="54.275"/><use xlink:href="#29" y="56.446"/><use xlink:href="#30" y="58.617"/><use xlink:href="#31" y="60.788"/><use xlink:href="#1" y="62.959"/><text y="66.8" class="e">$</text><text x="2.004" y="66.8" class="e">./s</text></svg><svg x="2790"><use xlink:href="#a"/><use xlink:href="#b" x="5.996" y="65.105"/><use xlink:href="#1"/><use xlink:href="#4" y="2.171"/><use xlink:href="#5" y="4.342"/><use xlink:href="#6" y="6.513"/><use xlink:href="#7" y="8.684"/><use xlink:href="#8" y="10.855"/><use xlink:href="#9" y="13.026"/><use xlink:href="#10" y="15.197"/><use xlink:href="#11" y="17.368"/><use xlink:href="#12" y="19.539"/><use xlink:href="#13" y="21.71"/><use xlink:href="#14" y="23.881"/><use xlink:href="#15" y="26.052"/><use xlink:href="#16" y="28.223"/><use xlink:href="#17" y="30.394"/><use xlink:href="#18" y="32.565"/><use xlink:href="#19" y="34.736"/><use xlink:href="#20" y="36.907"/><use xlink:href="#21" y="39.078"/><use xlink:href="#22" y="41.249"/><use xlink:href="#23" y="43.42"/><use xlink:href="#24" y="45.591"/><use xlink:href="#25" y="47.762"/><use xlink:href="#26" y="49.933"/><use xlink:href="#27" y="52.104"/><use xlink:href="#28" y="54.275"/><use xlink:href="#29" y="56.446"/><use xlink:href="#30" y="58.617"/><use xlink:href="#31" y="60.788"/><use xlink:href="#1" y="62.959"/><text y="66.8" class="e">$</text><text x="2.004" y="66.8" class="e">./sp</text></svg><svg x="2880"><use xlink:href="#a"/><use xlink:href="#b" x="6.996" y="65.105"/><use xlink:href="#1"/><use xlink:href="#4" y="2.171"/><use xlink:href="#5" y="4.342"/><use xlink:href="#6" y="6.513"/><use xlink:href="#7" y="8.684"/><use xlink:href="#8" y="10.855"/><use xlink:href="#9" y="13.026"/><use xlink:href="#10" y="15.197"/><use xlink:href="#11" y="17.368"/><use xlink:href="#12" y="19.539"/><use xlink:href="#13" y="21.71"/><use xlink:href="#14" y="23.881"/><use xlink:href="#15" y="26.052"/><use xlink:href="#16" y="28.223"/><use xlink:href="#17" y="30.394"/><use xlink:href="#18" y="32.565"/><use xlink:href="#19" y="34.736"/><use xlink:href="#20" y="36.907"/><use xlink:href="#21" y="39.078"/><use xlink:href="#22" y="41.249"/><use xlink:href="#23" y="43.42"/><use xlink:href="#24" y="45.591"/><use xlink:href="#25" y="47.762"/><use xlink:href="#26" y="49.933"/><use xlink:href="#27" y="52.104"/><use xlink:href="#28" y="54.275"/><use xlink:href="#29" y="56.446"/><use xlink:href="#30" y="58.617"/><use xlink:href="#31" y="60.788"/><use xlink:href="#1" y="62.959"/><text y="66.8" class="e">$</text><text x="2.004" y="66.8" class="e">./spo</text></svg><svg x="2970"><use xlink:href="#a"/><use xlink:href="#b" x="11.996" y="65.105"/><use xlink:href="#1"/><use xlink:href="#4" y="2.171"/><use xlink:href="#5" y="4.342"/><use xlink:href="#6" y="6.513"/><use xlink:href="#7" y="8.684"/><use xlink:href="#8" y="10.855"/><use xlink:href="#9" y="13.026"/><use xlink:href="#10" y="15.197"/><use xlink:href="#11" y="17.368"/><use xlink:href="#12" y="19.539"/><use xlink:href="#13" y="21.71"/><use xlink:href="#14" y="23.881"/><use xlink:href="#15" y="26.052"/><use xlink:href="#16" y="28.223"/><use xlink:href="#17" y="30.394"/><use xlink:href="#18" y="32.565"/><use xlink:href="#19" y="34.736"/><use xlink:href="#20" y="36.907"/><use xlink:href="#21" y="39.078"/><use xlink:href="#22" y="41.249"/><use xlink:href="#23" y="43.42"/><use xlink:href="#24" y="45.591"/><use xlink:href="#25" y="47.762"/><use xlink:href="#26" y="49.933"/><use xlink:href="#27" y="52.104"/><use xlink:href="#28" y="54.275"/><use xlink:href="#29" y="56.446"/><use xlink:href="#30" y="58.617"/><use xlink:href="#31" y="60.788"/><use xlink:href="#1" y="62.959"/><text y="66.8" class="e">$</text><text x="2.004" y="66.8" class="e">./spoon_q</text></svg><svg x="3060"><use xlink:href="#a"/><use xlink:href="#b" x="12.996" y="65.105"/><use xlink:href="#1"/><use xlink:href="#4" y="2.171"/><use xlink:href="#5" y="4.342"/><use xlink:href="#6" y="6.513"/><use xlink:href="#7" y="8.684"/><use xlink:href="#8" y="10.855"/><use xlink:href="#9" y="13.026"/><use xlink:href="#10" y="15.197"/><use xlink:href="#11" y="17.368"/><use xlink:href="#12" y="19.539"/><use xlink:href="#13" y="21.71"/><use xlink:href="#14" y="23.881"/><use xlink:href="#15" y="26.052"/><use xlink:href="#16" y="28.223"/><use xlink:href="#17" y="30.394"/><use xlink:href="#18" y="32.565"/><use xlink:href="#19" y="34.736"/><use xlink:href="#20" y="36.907"/><use xlink:href="#21" y="39.078"/><use xlink:href="#22" y="41.249"/><use xlink:href="#23" y="43.42"/><use xlink:href="#24" y="45.591"/><use xlink:href="#25" y="47.762"/><use xlink:href="#26" y="49.933"/><use xlink:href="#27" y="52.104"/><use xlink:href="#28" y="54.275"/><use xlink:href="#29" y="56.446"/><use xlink:href="#30" y="58.617"/><use xlink:href="#31" y="60.788"/><use xlink:href="#1" y="62.959"/><text y="66.8" class="e">$</text><text x="2.004" y="66.8" class="e">./spoon_q</text><text x="12.024" y="66.8" class="e">!</text></svg><svg x="3150"><use xlink:href="#a"/><use xlink:href="#b" x="13.996" y="65.105"/><use xlink:href="#1"/><use xlink:href="#4" y="2.171"/><use xlink:href="#5" y="4.342"/><use xlink:href="#6" y="6.513"/><use xlink:href="#7" y="8.684"/><use xlink:href="#8" y="10.855"/><use xlink:href="#9" y="13.026"/><use xlink:href="#10" y="15.197"/><use xlink:href="#11" y="17.368"/><use xlink:href="#12" y="19.539"/><use xlink:href="#13" y="21.71"/><use xlink:href="#14" y="23.881"/><use xlink:href="#15" y="26.052"/><use xlink:href="#16" y="28.223"/><use xlink:href="#17" y="30.394"/><use xlink:href="#18" y="32.565"/><use xlink:href="#19" y="34.736"/><use xlink:href="#20" y="36.907"/><use xlink:href="#21" y="39.078"/><use xlink:href="#22" y="41.249"/><use xlink:href="#23" y="43.42"/><use xlink:href="#24" y="45.591"/><use xlink:href="#25" y="47.762"/><use xlink:href="#26" y="49.933"/><use xlink:href="#27" y="52.104"/><use xlink:href="#28" y="54.275"/><use xlink:href="#29" y="56.446"/><use xlink:href="#30" y="58.617"/><use xlink:href="#31" y="60.788"/><use xlink:href="#1" y="62.959"/><text y="66.8" class="e">$</text><text x="2.004" y="66.8" class="e">./spoon_q</text><text x="12.024" y="66.8" class="e">!$</text></svg><svg x="3240"><use xlink:href="#a"/><use xlink:href="#b" x="28.996" y="65.105"/><use xlink:href="#1"/><use xlink:href="#4" y="2.171"/><use xlink:href="#5" y="4.342"/><use xlink:href="#6" y="6.513"/><use xlink:href="#7" y="8.684"/><use xlink:href="#8" y="10.855"/><use xlink:href="#9" y="13.026"/><use xlink:href="#10" y="15.197"/><use xlink:href="#11" y="17.368"/><use xlink:href="#12" y="19.539"/><use xlink:href="#13" y="21.71"/><use xlink:href="#14" y="23.881"/><use xlink:href="#15" y="26.052"/><use xlink:href="#16" y="28.223"/><use xlink:href="#17" y="30.394"/><use xlink:href="#18" y="32.565"/><use xlink:href="#19" y="34.736"/><use xlink:href="#20" y="36.907"/><use xlink:href="#21" y="39.078"/><use xlink:href="#22" y="41.249"/><use xlink:href="#23" y="43.42"/><use xlink:href="#24" y="45.591"/><use xlink:href="#25" y="47.762"/><use xlink:href="#26" y="49.933"/><use xlink:href="#27" y="52.104"/><use xlink:href="#28" y="54.275"/><use xlink:href="#29" y="56.446"/><use xlink:href="#30" y="58.617"/><use xlink:href="#31" y="60.788"/><use xlink:href="#1" y="62.959"/><use xlink:href="#32" y="65.13"/></svg><svg x="3330"><use xlink:href="#a"/><use xlink:href="#b" x="-.004" y="67.276"/><use xlink:href="#1"/><use xlink:href="#4" y="2.171"/><use xlink:href="#5" y="4.342"/><use xlink:href="#6" y="6.513"/><use xlink:href="#7" y="8.684"/><use xlink:href="#8" y="10.855"/><use xlink:href="#9" y="13.026"/><use xlink:href="#10" y="15.197"/><use xlink:href="#11" y="17.368"/><use xlink:href="#12" y="19.539"/><use xlink:href="#13" y="21.71"/><use xlink:href="#14" y="23.881"/><use xlink:href="#15" y="26.052"/><use xlink:href="#16" y="28.223"/><use xlink:href="#17" y="30.394"/><use xlink:href="#18" y="32.565"/><use xlink:href="#19" y="34.736"/><use xlink:href="#20" y="36.907"/><use xlink:href="#21" y="39.078"/><use xlink:href="#22" y="41.249"/><use xlink:href="#23" y="43.42"/><use xlink:href="#24" y="45.591"/><use xlink:href="#25" y="47.762"/><use xlink:href="#26" y="49.933"/><use xlink:href="#27" y="52.104"/><use xlink:href="#28" y="54.275"/><use xlink:href="#29" y="56.446"/><use xlink:href="#30" y="58.617"/><use xlink:href="#31" y="60.788"/><use xlink:href="#1" y="62.959"/><use xlink:href="#32" y="65.13"/></svg><svg x="3420"><use xlink:href="#a"/><use xlink:href="#b" x="-.004" y="71.618"/><use xlink:href="#1"/><use xlink:href="#4" y="2.171"/><use xlink:href="#5" y="4.342"/><use xlink:href="#6" y="6.513"/><use xlink:href="#7" y="8.684"/><use xlink:href="#8" y="10.855"/><use xlink:href="#9" y="13.026"/><use xlink:href="#10" y="15.197"/><use xlink:href="#11" y="17.368"/><use xlink:href="#12" y="19.539"/><use xlink:href="#13" y="21.71"/><use xlink:href="#14" y="23.881"/><use xlink:href="#15" y="26.052"/><use xlink:href="#16" y="28.223"/><use xlink:href="#17" y="30.394"/><use xlink:href="#18" y="32.565"/><use xlink:href="#19" y="34.736"/><use xlink:href="#20" y="36.907"/><use xlink:href="#21" y="39.078"/><use xlink:href="#22" y="41.249"/><use xlink:href="#23" y="43.42"/><use xlink:href="#24" y="45.591"/><use xlink:href="#25" y="47.762"/><use xlink:href="#26" y="49.933"/><use xlink:href="#27" y="52.104"/><use xlink:href="#28" y="54.275"/><use xlink:href="#29" y="56.446"/><use xlink:href="#30" y="58.617"/><use xlink:href="#31" y="60.788"/><use xlink:href="#1" y="62.959"/><use xlink:href="#32" y="65.13"/><use xlink:href="#33" y="67.301"/></svg><svg x="3510"><use xlink:href="#a"/><use xlink:href="#b" x="-.004" y="75.96"/><use xlink:href="#1"/><use xlink:href="#4" y="2.171"/><use xlink:href="#5" y="4.342"/><use xlink:href="#6" y="6.513"/><use xlink:href="#7" y="8.684"/><use xlink:href="#8" y="10.855"/><use xlink:href="#9" y="13.026"/><use xlink:href="#10" y="15.197"/><use xlink:href="#11" y="17.368"/><use xlink:href="#12" y="19.539"/><use xlink:href="#13" y="21.71"/><use xlink:href="#14" y="23.881"/><use xlink:href="#15" y="26.052"/><use xlink:href="#16" y="28.223"/><use xlink:href="#17" y="30.394"/><use xlink:href="#18" y="32.565"/><use xlink:href="#19" y="34.736"/><use xlink:href="#20" y="36.907"/><use xlink:href="#21" y="39.078"/><use xlink:href="#22" y="41.249"/><use xlink:href="#23" y="43.42"/><use xlink:href="#24" y="45.591"/><use xlink:href="#25" y="47.762"/><use xlink:href="#26" y="49.933"/><use xlink:href="#27" y="52.104"/><use xlink:href="#28" y="54.275"/><use xlink:href="#29" y="56.446"/><use xlink:href="#30" y="58.617"/><use xlink:href="#31" y="60.788"/><use xlink:href="#1" y="62.959"/><use xlink:href="#32" y="65.13"/><use xlink:href="#33" y="67.301"/><use xlink:href="#34" y="71.643"/></svg><svg x="3600"><use xlink:href="#a"/><use xlink:href="#b" x="-.004" y="84.644"/><use xlink:href="#11"/><use xlink:href="#12" y="2.171"/><use xlink:href="#13" y="4.342"/><use xlink:href="#14" y="6.513"/><use xlink:href="#15" y="8.684"/><use xlink:href="#16" y="10.855"/><use xlink:href="#17" y="13.026"/><use xlink:href="#18" y="15.197"/><use xlink:href="#19" y="17.368"/><use xlink:href="#20" y="19.539"/><use xlink:href="#21" y="21.71"/><use xlink:href="#22" y="23.881"/><use xlink:href="#23" y="26.052"/><use xlink:href="#24" y="28.223"/><use xlink:href="#25" y="30.394"/><use xlink:href="#26" y="32.565"/><use xlink:href="#27" y="34.736"/><use xlink:href="#28" y="36.907"/><use xlink:href="#29" y="39.078"/><use xlink:href="#30" y="41.249"/><use xlink:href="#31" y="43.42"/><use xlink:href="#1" y="45.591"/><use xlink:href="#32" y="47.762"/><use xlink:href="#33" y="49.933"/><use xlink:href="#34" y="54.275"/><use xlink:href="#35" y="58.617"/><use xlink:href="#36" y="60.788"/><use xlink:href="#37" y="62.959"/><use xlink:href="#38" y="65.13"/><use xlink:href="#39" y="67.301"/><use xlink:href="#40" y="69.472"/><use xlink:href="#41" y="71.643"/><use xlink:href="#42" y="73.814"/><use xlink:href="#43" y="75.985"/><use xlink:href="#44" y="78.156"/><use xlink:href="#45" y="80.327"/><use xlink:href="#46" y="82.498"/></svg><svg x="3690"><use xlink:href="#a"/><use xlink:href="#b" x="-.004" y="84.644"/><use xlink:href="#12"/><use xlink:href="#13" y="2.171"/><use xlink:href="#14" y="4.342"/><use xlink:href="#15" y="6.513"/><use xlink:href="#16" y="8.684"/><use xlink:href="#17" y="10.855"/><use xlink:href="#18" y="13.026"/><use xlink:href="#19" y="15.197"/><use xlink:href="#20" y="17.368"/><use xlink:href="#21" y="19.539"/><use xlink:href="#22" y="21.71"/><use xlink:href="#23" y="23.881"/><use xlink:href="#24" y="26.052"/><use xlink:href="#25" y="28.223"/><use xlink:href="#26" y="30.394"/><use xlink:href="#27" y="32.565"/><use xlink:href="#28" y="34.736"/><use xlink:href="#29" y="36.907"/><use xlink:href="#30" y="39.078"/><use xlink:href="#31" y="41.249"/><use xlink:href="#1" y="43.42"/><use xlink:href="#32" y="45.591"/><use xlink:href="#33" y="47.762"/><use xlink:href="#34" y="52.104"/><use xlink:href="#35" y="56.446"/><use xlink:href="#36" y="58.617"/><use xlink:href="#37" y="60.788"/><use xlink:href="#38" y="62.959"/><use xlink:href="#39" y="65.13"/><use xlink:href="#40" y="67.301"/><use xlink:href="#41" y="69.472"/><use xlink:href="#42" y="71.643"/><use xlink:href="#43" y="73.814"/><use xlink:href="#44" y="75.985"/><use xlink:href="#45" y="78.156"/><use xlink:href="#46" y="80.327"/><use xlink:href="#1" y="82.498"/></svg><svg x="3780"><use xlink:href="#a"/><use xlink:href="#b" x="1.996" y="84.644"/><use xlink:href="#12"/><use xlink:href="#13" y="2.171"/><use xlink:href="#14" y="4.342"/><use xlink:href="#15" y="6.513"/><use xlink:href="#16" y="8.684"/><use xlink:href="#17" y="10.855"/><use xlink:href="#18" y="13.026"/><use xlink:href="#19" y="15.197"/><use xlink:href="#20" y="17.368"/><use xlink:href="#21" y="19.539"/><use xlink:href="#22" y="21.71"/><use xlink:href="#23" y="23.881"/><use xlink:href="#24" y="26.052"/><use xlink:href="#25" y="28.223"/><use xlink:href="#26" y="30.394"/><use xlink:href="#27" y="32.565"/><use xlink:href="#28" y="34.736"/><use xlink:href="#29" y="36.907"/><use xlink:href="#30" y="39.078"/><use xlink:href="#31" y="41.249"/><use xlink:href="#1" y="43.42"/><use xlink:href="#32" y="45.591"/><use xlink:href="#33" y="47.762"/><use xlink:href="#34" y="52.104"/><use xlink:href="#35" y="56.446"/><use xlink:href="#36" y="58.617"/><use xlink:href="#37" y="60.788"/><use xlink:href="#38" y="62.959"/><use xlink:href="#39" y="65.13"/><use xlink:href="#40" y="67.301"/><use xlink:href="#41" y="69.472"/><use xlink:href="#42" y="71.643"/><use xlink:href="#43" y="73.814"/><use xlink:href="#44" y="75.985"/><use xlink:href="#45" y="78.156"/><use xlink:href="#46" y="80.327"/><use xlink:href="#1" y="82.498"/><use xlink:href="#2" y="84.669"/></svg><svg x="3870"><use xlink:href="#a"/><use xlink:href="#b" x="-.004" y="84.644"/><use xlink:href="#13"/><use xlink:href="#14" y="2.171"/><use xlink:href="#15" y="4.342"/><use xlink:href="#16" y="6.513"/><use xlink:href="#17" y="8.684"/><use xlink:href="#18" y="10.855"/><use xlink:href="#19" y="13.026"/><use xlink:href="#20" y="15.197"/><use xlink:href="#21" y="17.368"/><use xlink:href="#22" y="19.539"/><use xlink:href="#23" y="21.71"/><use xlink:href="#24" y="23.881"/><use xlink:href="#25" y="26.052"/><use xlink:href="#26" y="28.223"/><use xlink:href="#27" y="30.394"/><use xlink:href="#28" y="32.565"/><use xlink:href="#29" y="34.736"/><use xlink:href="#30" y="36.907"/><use xlink:href="#31" y="39.078"/><use xlink:href="#1" y="41.249"/><use xlink:href="#32" y="43.42"/><use xlink:href="#33" y="45.591"/><use xlink:href="#34" y="49.933"/><use xlink:href="#35" y="54.275"/><use xlink:href="#36" y="56.446"/><use xlink:href="#37" y="58.617"/><use xlink:href="#38" y="60.788"/><use xlink:href="#39" y="62.959"/><use xlink:href="#40" y="65.13"/><use xlink:href="#41" y="67.301"/><use xlink:href="#42" y="69.472"/><use xlink:href="#43" y="71.643"/><use xlink:href="#44" y="73.814"/><use xlink:href="#45" y="75.985"/><use xlink:href="#46" y="78.156"/><use xlink:href="#1" y="80.327"/><use xlink:href="#2" y="82.498"/></svg></svg></g></g></svg></svg>