<svg xmlns="http://www.w3.org/2000/svg" xmlns:xlink="http://www.w3.org/1999/xlink" width="1510" height="928.4"><rect width="1510" height="928.4" rx="5" ry="5" class="a"/><svg y="0%" x="0%"><circle cx="20" cy="20" r="6" fill="#ff5f58"/><circle cx="40" cy="20" r="6" fill="#ffbd2e"/><circle cx="60" cy="20" r="6" fill="#18c132"/></svg><svg height="868.4" viewBox="0 0 147 86.84" width="1470" x="15" xmlns="http://www.w3.org/2000/svg" xmlns:xlink="http://www.w3.org/1999/xlink" y="50"><style>@keyframes k{0%{transform:translateX(0)}.21%{transform:translateX(-147px)}.22%{transform:translateX(-294px)}4.62%{transform:translateX(-441px)}5.05%{transform:translateX(-588px)}6.12%{transform:translateX(-735px)}7.14%{transform:translateX(-882px)}11.24%{transform:translateX(-1029px)}13.12%{transform:translateX(-1176px)}14.76%{transform:translateX(-1323px)}15.17%{transform:translateX(-1470px)}16.17%{transform:translateX(-1617px)}16.92%{transform:translateX(-1764px)}18.24%{transform:translateX(-1911px)}20.04%{transform:translateX(-2058px)}22.08%{transform:translateX(-2205px)}23.12%{transform:translateX(-2352px)}23.53%{transform:translateX(-2499px)}27.32%{transform:translateX(-2646px)}27.86%{transform:translateX(-2793px)}28.4%{transform:translateX(-2940px)}29.16%{transform:translateX(-3087px)}33.97%{transform:translateX(-3234px)}35.77%{transform:translateX(-3381px)}38.45%{transform:translateX(-3528px)}38.48%{transform:translateX(-3822px)}38.49%{transform:translateX(-3969px)}46.78%{transform:translateX(-4116px)}47.41%{transform:translateX(-4263px)}48.67%{transform:translateX(-4410px)}49.23%{transform:translateX(-4557px)}49.71%{transform:translateX(-4704px)}50.97%{transform:translateX(-4851px)}66.65%{transform:translateX(-4998px)}67.6%{transform:translateX(-5145px)}69.59%{transform:translateX(-5292px)}73.53%{transform:translateX(-5439px)}73.55%{transform:translateX(-5586px)}73.56%{transform:translateX(-5733px)}90%{transform:translateX(-5880px)}90.01%{transform:translateX(-6174px)}to{transform:translateX(-6321px)}}.a{fill:#282d35}.f,.g,.h{fill:#b9c0cb;white-space:pre}.g,.h{fill:#66c2cd}.h{fill:#6f7783}</style><g font-family="Monaco,Consolas,Menlo,'Bitstream Vera Sans Mono','Powerline Symbols',monospace" font-size="1.67"><defs><symbol id="1"><text y="1.67" class="f">$</text></symbol><symbol id="2"><text y="1.67" class="f">$</text><text x="2.004" y="1.67" class="f">cat</text></symbol><symbol id="3"><text y="1.67" class="f">$</text><text x="2.004" y="1.67" class="f">cat</text><text x="6.012" y="1.67" class="f">tests/nqueens.sat</text></symbol><symbol id="4"><text y="1.67" class="f">p</text><text x="2.004" y="1.67" class="f">cnf</text><text x="6.012" y="1.67" class="f">12</text><text x="9.018" y="1.67" class="f">26</text></symbol><symbol id="5"><text y="1.67" class="f">-1</text><text x="3.006" y="1.67" class="f">2</text><text x="5.01" y="1.67" class="f">0</text></symbol><symbol id="6"><text y="1.67" class="f">-3</text><text x="3.006" y="1.67" class="f">4</text><text x="5.01" y="1.67" class="f">0</text></symbol><symbol id="7"><text y="1.67" class="f">-5</text><text x="3.006" y="1.67" class="f">6</text><text x="5.01" y="1.67" class="f">0</text></symbol><symbol id="8"><text y="1.67" class="f">-3</text><text x="3.006" y="1.67" class="f">-7</text><text x="6.012" y="1.67" class="f">0</text></symbol><symbol id="9"><text y="1.67" class="f">1</text><text x="2.004" y="1.67" class="f">-4</text><text x="5.01" y="1.67" class="f">-7</text><text x="8.016" y="1.67" class="f">0</text></symbol><symbol id="10"><text y="1.67" class="f">2</text><text x="2.004" y="1.67" class="f">-7</text><text x="5.01" y="1.67" class="f">0</text></symbol><symbol id="11"><text y="1.67" class="f">-1</text><text x="3.006" y="1.67" class="f">-8</text><text x="6.012" y="1.67" class="f">0</text></symbol><symbol id="12"><text y="1.67" class="f">-2</text><text x="3.006" y="1.67" class="f">3</text><text x="5.01" y="1.67" class="f">-8</text><text x="8.016" y="1.67" class="f">0</text></symbol><symbol id="13"><text y="1.67" class="f">4</text><text x="2.004" y="1.67" class="f">-8</text><text x="5.01" y="1.67" class="f">0</text></symbol><symbol id="14"><text y="1.67" class="f">7</text><text x="2.004" y="1.67" class="f">8</text><text x="4.008" y="1.67" class="f">0</text></symbol><symbol id="15"><text y="1.67" class="f">-5</text><text x="3.006" y="1.67" class="f">-9</text><text x="6.012" y="1.67" class="f">0</text></symbol><symbol id="16"><text y="1.67" class="f">1</text><text x="2.004" y="1.67" class="f">-6</text><text x="5.01" y="1.67" class="f">-9</text><text x="8.016" y="1.67" class="f">0</text></symbol><symbol id="17"><text y="1.67" class="f">2</text><text x="2.004" y="1.67" class="f">-9</text><text x="5.01" y="1.67" class="f">0</text></symbol><symbol id="18"><text y="1.67" class="f">-1</text><text x="3.006" y="1.67" class="f">-10</text><text x="7.014" y="1.67" class="f">0</text></symbol><symbol id="19"><text y="1.67" class="f">-2</text><text x="3.006" y="1.67" class="f">5</text><text x="5.01" y="1.67" class="f">-10</text><text x="9.018" y="1.67" class="f">0</text></symbol><symbol id="20"><text y="1.67" class="f">6</text><text x="2.004" y="1.67" class="f">-10</text><text x="6.012" y="1.67" class="f">0</text></symbol><symbol id="21"><text y="1.67" class="f">9</text><text x="2.004" y="1.67" class="f">10</text><text x="5.01" y="1.67" class="f">0</text></symbol><symbol id="22"><text y="1.67" class="f">-5</text><text x="3.006" y="1.67" class="f">-11</text><text x="7.014" y="1.67" class="f">0</text></symbol><symbol id="23"><text y="1.67" class="f">3</text><text x="2.004" y="1.67" class="f">-6</text><text x="5.01" y="1.67" class="f">-11</text><text x="9.018" y="1.67" class="f">0</text></symbol><symbol id="24"><text y="1.67" class="f">4</text><text x="2.004" y="1.67" class="f">-11</text><text x="6.012" y="1.67" class="f">0</text></symbol><symbol id="25"><text y="1.67" class="f">-3</text><text x="3.006" y="1.67" class="f">-12</text><text x="7.014" y="1.67" class="f">0</text></symbol><symbol id="26"><text y="1.67" class="f">-4</text><text x="3.006" y="1.67" class="f">5</text><text x="5.01" y="1.67" class="f">-12</text><text x="9.018" y="1.67" class="f">0</text></symbol><symbol id="27"><text y="1.67" class="f">6</text><text x="2.004" y="1.67" class="f">-12</text><text x="6.012" y="1.67" class="f">0</text></symbol><symbol id="28"><text y="1.67" class="f">11</text><text x="3.006" y="1.67" class="f">12</text><text x="6.012" y="1.67" class="f">0</text></symbol><symbol id="29"><text y="1.67" class="f">-2</text><text x="3.006" y="1.67" class="f">-4</text><text x="6.012" y="1.67" class="f">-6</text><text x="9.018" y="1.67" class="f">0</text></symbol><symbol id="30"><text y="1.67" class="f">1</text><text x="2.004" y="1.67" class="f">3</text><text x="4.008" y="1.67" class="f">5</text><text x="6.012" y="1.67" class="f">0</text></symbol><symbol id="31"><text y="1.67" class="f">$</text><text x="2.004" y="1.67" class="f">./spoon_q</text><text x="12.024" y="1.67" class="f">tests/nqueens.sat</text></symbol><symbol id="32"><text y="1.67" class="g">Info:</text><text x="6.012" y="1.67" class="f">Generating</text><text x="17.034" y="1.67" class="f">clauses</text><text x="25.05" y="1.67" class="f">from</text><text x="30.06" y="1.67" class="f">DIMACS</text><text x="37.074" y="1.67" class="f">file...</text><text x="46.092" y="1.67" class="h">(src/cli.rs:98)</text></symbol><symbol id="33"><text y="1.67" class="g">Info:</text><text x="6.012" y="1.67" class="f">Solving</text><text x="14.028" y="1.67" class="f">using</text><text x="20.04" y="1.67" class="f">internal</text><text x="29.058" y="1.67" class="f">solver...</text><text x="40.08" y="1.67" class="h">(src/cli.rs:64)</text></symbol><symbol id="34"><text y="1.67" class="f">1</text><text x="2.004" y="1.67" class="f">=</text><text x="4.008" y="1.67" class="f">true</text></symbol><symbol id="35"><text y="1.67" class="f">2</text><text x="2.004" y="1.67" class="f">=</text><text x="4.008" y="1.67" class="f">true</text></symbol><symbol id="36"><text y="1.67" class="f">3</text><text x="2.004" y="1.67" class="f">=</text><text x="4.008" y="1.67" class="f">false</text></symbol><symbol id="37"><text y="1.67" class="f">4</text><text x="2.004" y="1.67" class="f">=</text><text x="4.008" y="1.67" class="f">false</text></symbol><symbol id="38"><text y="1.67" class="f">5</text><text x="2.004" y="1.67" class="f">=</text><text x="4.008" y="1.67" class="f">false</text></symbol><symbol id="39"><text y="1.67" class="f">6</text><text x="2.004" y="1.67" class="f">=</text><text x="4.008" y="1.67" class="f">true</text></symbol><symbol id="40"><text y="1.67" class="f">7</text><text x="2.004" y="1.67" class="f">=</text><text x="4.008" y="1.67" class="f">true</text></symbol><symbol id="41"><text y="1.67" class="f">8</text><text x="2.004" y="1.67" class="f">=</text><text x="4.008" y="1.67" class="f">false</text></symbol><symbol id="42"><text y="1.67" class="f">9</text><text x="2.004" y="1.67" class="f">=</text><text x="4.008" y="1.67" class="f">true</text></symbol><symbol id="43"><text y="1.67" class="f">10</text><text x="3.006" y="1.67" class="f">=</text><text x="5.01" y="1.67" class="f">false</text></symbol><symbol id="44"><text y="1.67" class="f">11</text><text x="3.006" y="1.67" class="f">=</text><text x="5.01" y="1.67" class="f">false</text></symbol><symbol id="45"><text y="1.67" class="f">12</text><text x="3.006" y="1.67" class="f">=</text><text x="5.01" y="1.67" class="f">true</text></symbol><symbol id="a"><path fill="transparent" d="M0 0h147v40H0z"/></symbol><symbol id="b"><path fill="#6f7683" d="M0 0h1.102v2.171H0z"/></symbol></defs><path class="a" d="M0 0h147v86.84H0z"/><g style="animation-duration:21.068861s;animation-iteration-count:infinite;animation-name:k;animation-timing-function:steps(1,end)"><svg width="6468"><svg><use xlink:href="#a"/><use xlink:href="#b" x="-.004"/></svg><svg x="147"><use xlink:href="#a"/><use xlink:href="#b" x="-.004"/></svg><svg x="294"><use xlink:href="#a"/><use xlink:href="#b" x="1.996"/><use xlink:href="#1"/></svg><svg x="441"><use xlink:href="#a"/><use xlink:href="#b" x="2.996"/><text y="1.67" class="f">$</text><text x="2.004" y="1.67" class="f">c</text></svg><svg x="588"><use xlink:href="#a"/><use xlink:href="#b" x="3.996"/><text y="1.67" class="f">$</text><text x="2.004" y="1.67" class="f">ca</text></svg><svg x="735"><use xlink:href="#a"/><use xlink:href="#b" x="4.996"/><use xlink:href="#2"/></svg><svg x="882"><use xlink:href="#a"/><use xlink:href="#b" x="5.996"/><use xlink:href="#2"/></svg><svg x="1029"><use xlink:href="#a"/><use xlink:href="#b" x="6.996"/><text y="1.67" class="f">$</text><text x="2.004" y="1.67" class="f">cat</text><text x="6.012" y="1.67" class="f">/</text></svg><svg x="1176"><use xlink:href="#a"/><use xlink:href="#b" x="5.996"/><use xlink:href="#2"/></svg><svg x="1323"><use xlink:href="#a"/><use xlink:href="#b" x="6.996"/><text y="1.67" class="f">$</text><text x="2.004" y="1.67" class="f">cat</text><text x="6.012" y="1.67" class="f">t</text></svg><svg x="1470"><use xlink:href="#a"/><use xlink:href="#b" x="7.996"/><text y="1.67" class="f">$</text><text x="2.004" y="1.67" class="f">cat</text><text x="6.012" y="1.67" class="f">te</text></svg><svg x="1617"><use xlink:href="#a"/><use xlink:href="#b" x="8.996"/><text y="1.67" class="f">$</text><text x="2.004" y="1.67" class="f">cat</text><text x="6.012" y="1.67" class="f">tes</text></svg><svg x="1764"><use xlink:href="#a"/><use xlink:href="#b" x="9.996"/><text y="1.67" class="f">$</text><text x="2.004" y="1.67" class="f">cat</text><text x="6.012" y="1.67" class="f">test</text></svg><svg x="1911"><use xlink:href="#a"/><use xlink:href="#b" x="10.996"/><text y="1.67" class="f">$</text><text x="2.004" y="1.67" class="f">cat</text><text x="6.012" y="1.67" class="f">tests</text></svg><svg x="2058"><use xlink:href="#a"/><use xlink:href="#b" x="11.996"/><text y="1.67" class="f">$</text><text x="2.004" y="1.67" class="f">cat</text><text x="6.012" y="1.67" class="f">tests/</text></svg><svg x="2205"><use xlink:href="#a"/><use xlink:href="#b" x="12.996"/><text y="1.67" class="f">$</text><text x="2.004" y="1.67" class="f">cat</text><text x="6.012" y="1.67" class="f">tests/n</text></svg><svg x="2352"><use xlink:href="#a"/><use xlink:href="#b" x="13.996"/><text y="1.67" class="f">$</text><text x="2.004" y="1.67" class="f">cat</text><text x="6.012" y="1.67" class="f">tests/nq</text></svg><svg x="2499"><use xlink:href="#a"/><use xlink:href="#b" x="14.996"/><text y="1.67" class="f">$</text><text x="2.004" y="1.67" class="f">cat</text><text x="6.012" y="1.67" class="f">tests/nqu</text></svg><svg x="2646"><use xlink:href="#a"/><use xlink:href="#b" x="15.996"/><text y="1.67" class="f">$</text><text x="2.004" y="1.67" class="f">cat</text><text x="6.012" y="1.67" class="f">tests/nque</text></svg><svg x="2793"><use xlink:href="#a"/><use xlink:href="#b" x="16.996"/><text y="1.67" class="f">$</text><text x="2.004" y="1.67" class="f">cat</text><text x="6.012" y="1.67" class="f">tests/nquee</text></svg><svg x="2940"><use xlink:href="#a"/><use xlink:href="#b" x="17.996"/><text y="1.67" class="f">$</text><text x="2.004" y="1.67" class="f">cat</text><text x="6.012" y="1.67" class="f">tests/nqueen</text></svg><svg x="3087"><use xlink:href="#a"/><use xlink:href="#b" x="18.996"/><text y="1.67" class="f">$</text><text x="2.004" y="1.67" class="f">cat</text><text x="6.012" y="1.67" class="f">tests/nqueens</text></svg><svg x="3234"><use xlink:href="#a"/><use xlink:href="#b" x="19.996"/><text y="1.67" class="f">$</text><text x="2.004" y="1.67" class="f">cat</text><text x="6.012" y="1.67" class="f">tests/nqueens.</text></svg><svg x="3381"><use xlink:href="#a"/><use xlink:href="#b" x="23.996"/><use xlink:href="#3"/></svg><svg x="3528"><use xlink:href="#a"/><use xlink:href="#b" x="-.004" y="2.146"/><use xlink:href="#3"/></svg><svg x="3675"><use xlink:href="#a"/><use xlink:href="#b" x="-.004" y="60.763"/><use xlink:href="#3"/><use xlink:href="#4" y="2.171"/><use xlink:href="#5" y="4.342"/><use xlink:href="#6" y="6.513"/><use xlink:href="#7" y="8.684"/><use xlink:href="#8" y="10.855"/><use xlink:href="#9" y="13.026"/><use xlink:href="#10" y="15.197"/><use xlink:href="#11" y="17.368"/><use xlink:href="#12" y="19.539"/><use xlink:href="#13" y="21.71"/><use xlink:href="#14" y="23.881"/><use xlink:href="#15" y="26.052"/><use xlink:href="#16" y="28.223"/><use xlink:href="#17" y="30.394"/><use xlink:href="#18" y="32.565"/><use xlink:href="#19" y="34.736"/><use xlink:href="#20" y="36.907"/><use xlink:href="#21" y="39.078"/><use xlink:href="#22" y="41.249"/><use xlink:href="#23" y="43.42"/><use xlink:href="#24" y="45.591"/><use xlink:href="#25" y="47.762"/><use xlink:href="#26" y="49.933"/><use xlink:href="#27" y="52.104"/><use xlink:href="#28" y="54.275"/><use xlink:href="#29" y="56.446"/><use xlink:href="#30" y="58.617"/></svg><svg x="3822"><use xlink:href="#a"/><use xlink:href="#b" x="-.004" y="60.763"/><use xlink:href="#3"/><use xlink:href="#4" y="2.171"/><use xlink:href="#5" y="4.342"/><use xlink:href="#6" y="6.513"/><use xlink:href="#7" y="8.684"/><use xlink:href="#8" y="10.855"/><use xlink:href="#9" y="13.026"/><use xlink:href="#10" y="15.197"/><use xlink:href="#11" y="17.368"/><use xlink:href="#12" y="19.539"/><use xlink:href="#13" y="21.71"/><use xlink:href="#14" y="23.881"/><use xlink:href="#15" y="26.052"/><use xlink:href="#16" y="28.223"/><use xlink:href="#17" y="30.394"/><use xlink:href="#18" y="32.565"/><use xlink:href="#19" y="34.736"/><use xlink:href="#20" y="36.907"/><use xlink:href="#21" y="39.078"/><use xlink:href="#22" y="41.249"/><use xlink:href="#23" y="43.42"/><use xlink:href="#24" y="45.591"/><use xlink:href="#25" y="47.762"/><use xlink:href="#26" y="49.933"/><use xlink:href="#27" y="52.104"/><use xlink:href="#28" y="54.275"/><use xlink:href="#29" y="56.446"/><use xlink:href="#30" y="58.617"/></svg><svg x="3969"><use xlink:href="#a"/><use xlink:href="#b" x="1.996" y="60.763"/><use xlink:href="#3"/><use xlink:href="#4" y="2.171"/><use xlink:href="#5" y="4.342"/><use xlink:href="#6" y="6.513"/><use xlink:href="#7" y="8.684"/><use xlink:href="#8" y="10.855"/><use xlink:href="#9" y="13.026"/><use xlink:href="#10" y="15.197"/><use xlink:href="#11" y="17.368"/><use xlink:href="#12" y="19.539"/><use xlink:href="#13" y="21.71"/><use xlink:href="#14" y="23.881"/><use xlink:href="#15" y="26.052"/><use xlink:href="#16" y="28.223"/><use xlink:href="#17" y="30.394"/><use xlink:href="#18" y="32.565"/><use xlink:href="#19" y="34.736"/><use xlink:href="#20" y="36.907"/><use xlink:href="#21" y="39.078"/><use xlink:href="#22" y="41.249"/><use xlink:href="#23" y="43.42"/><use xlink:href="#24" y="45.591"/><use xlink:href="#25" y="47.762"/><use xlink:href="#26" y="49.933"/><use xlink:href="#27" y="52.104"/><use xlink:href="#28" y="54.275"/><use xlink:href="#29" y="56.446"/><use xlink:href="#30" y="58.617"/><use xlink:href="#1" y="60.788"/></svg><svg x="4116"><use xlink:href="#a"/><use xlink:href="#b" x="2.996" y="60.763"/><use xlink:href="#3"/><use xlink:href="#4" y="2.171"/><use xlink:href="#5" y="4.342"/><use xlink:href="#6" y="6.513"/><use xlink:href="#7" y="8.684"/><use xlink:href="#8" y="10.855"/><use xlink:href="#9" y="13.026"/><use xlink:href="#10" y="15.197"/><use xlink:href="#11" y="17.368"/><use xlink:href="#12" y="19.539"/><use xlink:href="#13" y="21.71"/><use xlink:href="#14" y="23.881"/><use xlink:href="#15" y="26.052"/><use xlink:href="#16" y="28.223"/><use xlink:href="#17" y="30.394"/><use xlink:href="#18" y="32.565"/><use xlink:href="#19" y="34.736"/><use xlink:href="#20" y="36.907"/><use xlink:href="#21" y="39.078"/><use xlink:href="#22" y="41.249"/><use xlink:href="#23" y="43.42"/><use xlink:href="#24" y="45.591"/><use xlink:href="#25" y="47.762"/><use xlink:href="#26" y="49.933"/><use xlink:href="#27" y="52.104"/><use xlink:href="#28" y="54.275"/><use xlink:href="#29" y="56.446"/><use xlink:href="#30" y="58.617"/><text y="62.458" class="f">$</text><text x="2.004" y="62.458" class="f">.</text></svg><svg x="4263"><use xlink:href="#a"/><use xlink:href="#b" x="3.996" y="60.763"/><use xlink:href="#3"/><use xlink:href="#4" y="2.171"/><use xlink:href="#5" y="4.342"/><use xlink:href="#6" y="6.513"/><use xlink:href="#7" y="8.684"/><use xlink:href="#8" y="10.855"/><use xlink:href="#9" y="13.026"/><use xlink:href="#10" y="15.197"/><use xlink:href="#11" y="17.368"/><use xlink:href="#12" y="19.539"/><use xlink:href="#13" y="21.71"/><use xlink:href="#14" y="23.881"/><use xlink:href="#15" y="26.052"/><use xlink:href="#16" y="28.223"/><use xlink:href="#17" y="30.394"/><use xlink:href="#18" y="32.565"/><use xlink:href="#19" y="34.736"/><use xlink:href="#20" y="36.907"/><use xlink:href="#21" y="39.078"/><use xlink:href="#22" y="41.249"/><use xlink:href="#23" y="43.42"/><use xlink:href="#24" y="45.591"/><use xlink:href="#25" y="47.762"/><use xlink:href="#26" y="49.933"/><use xlink:href="#27" y="52.104"/><use xlink:href="#28" y="54.275"/><use xlink:href="#29" y="56.446"/><use xlink:href="#30" y="58.617"/><text y="62.458" class="f">$</text><text x="2.004" y="62.458" class="f">./</text></svg><svg x="4410"><use xlink:href="#a"/><use xlink:href="#b" x="4.996" y="60.763"/><use xlink:href="#3"/><use xlink:href="#4" y="2.171"/><use xlink:href="#5" y="4.342"/><use xlink:href="#6" y="6.513"/><use xlink:href="#7" y="8.684"/><use xlink:href="#8" y="10.855"/><use xlink:href="#9" y="13.026"/><use xlink:href="#10" y="15.197"/><use xlink:href="#11" y="17.368"/><use xlink:href="#12" y="19.539"/><use xlink:href="#13" y="21.71"/><use xlink:href="#14" y="23.881"/><use xlink:href="#15" y="26.052"/><use xlink:href="#16" y="28.223"/><use xlink:href="#17" y="30.394"/><use xlink:href="#18" y="32.565"/><use xlink:href="#19" y="34.736"/><use xlink:href="#20" y="36.907"/><use xlink:href="#21" y="39.078"/><use xlink:href="#22" y="41.249"/><use xlink:href="#23" y="43.42"/><use xlink:href="#24" y="45.591"/><use xlink:href="#25" y="47.762"/><use xlink:href="#26" y="49.933"/><use xlink:href="#27" y="52.104"/><use xlink:href="#28" y="54.275"/><use xlink:href="#29" y="56.446"/><use xlink:href="#30" y="58.617"/><text y="62.458" class="f">$</text><text x="2.004" y="62.458" class="f">./s</text></svg><svg x="4557"><use xlink:href="#a"/><use xlink:href="#b" x="5.996" y="60.763"/><use xlink:href="#3"/><use xlink:href="#4" y="2.171"/><use xlink:href="#5" y="4.342"/><use xlink:href="#6" y="6.513"/><use xlink:href="#7" y="8.684"/><use xlink:href="#8" y="10.855"/><use xlink:href="#9" y="13.026"/><use xlink:href="#10" y="15.197"/><use xlink:href="#11" y="17.368"/><use xlink:href="#12" y="19.539"/><use xlink:href="#13" y="21.71"/><use xlink:href="#14" y="23.881"/><use xlink:href="#15" y="26.052"/><use xlink:href="#16" y="28.223"/><use xlink:href="#17" y="30.394"/><use xlink:href="#18" y="32.565"/><use xlink:href="#19" y="34.736"/><use xlink:href="#20" y="36.907"/><use xlink:href="#21" y="39.078"/><use xlink:href="#22" y="41.249"/><use xlink:href="#23" y="43.42"/><use xlink:href="#24" y="45.591"/><use xlink:href="#25" y="47.762"/><use xlink:href="#26" y="49.933"/><use xlink:href="#27" y="52.104"/><use xlink:href="#28" y="54.275"/><use xlink:href="#29" y="56.446"/><use xlink:href="#30" y="58.617"/><text y="62.458" class="f">$</text><text x="2.004" y="62.458" class="f">./sp</text></svg><svg x="4704"><use xlink:href="#a"/><use xlink:href="#b" x="6.996" y="60.763"/><use xlink:href="#3"/><use xlink:href="#4" y="2.171"/><use xlink:href="#5" y="4.342"/><use xlink:href="#6" y="6.513"/><use xlink:href="#7" y="8.684"/><use xlink:href="#8" y="10.855"/><use xlink:href="#9" y="13.026"/><use xlink:href="#10" y="15.197"/><use xlink:href="#11" y="17.368"/><use xlink:href="#12" y="19.539"/><use xlink:href="#13" y="21.71"/><use xlink:href="#14" y="23.881"/><use xlink:href="#15" y="26.052"/><use xlink:href="#16" y="28.223"/><use xlink:href="#17" y="30.394"/><use xlink:href="#18" y="32.565"/><use xlink:href="#19" y="34.736"/><use xlink:href="#20" y="36.907"/><use xlink:href="#21" y="39.078"/><use xlink:href="#22" y="41.249"/><use xlink:href="#23" y="43.42"/><use xlink:href="#24" y="45.591"/><use xlink:href="#25" y="47.762"/><use xlink:href="#26" y="49.933"/><use xlink:href="#27" y="52.104"/><use xlink:href="#28" y="54.275"/><use xlink:href="#29" y="56.446"/><use xlink:href="#30" y="58.617"/><text y="62.458" class="f">$</text><text x="2.004" y="62.458" class="f">./spo</text></svg><svg x="4851"><use xlink:href="#a"/><use xlink:href="#b" x="11.996" y="60.763"/><use xlink:href="#3"/><use xlink:href="#4" y="2.171"/><use xlink:href="#5" y="4.342"/><use xlink:href="#6" y="6.513"/><use xlink:href="#7" y="8.684"/><use xlink:href="#8" y="10.855"/><use xlink:href="#9" y="13.026"/><use xlink:href="#10" y="15.197"/><use xlink:href="#11" y="17.368"/><use xlink:href="#12" y="19.539"/><use xlink:href="#13" y="21.71"/><use xlink:href="#14" y="23.881"/><use xlink:href="#15" y="26.052"/><use xlink:href="#16" y="28.223"/><use xlink:href="#17" y="30.394"/><use xlink:href="#18" y="32.565"/><use xlink:href="#19" y="34.736"/><use xlink:href="#20" y="36.907"/><use xlink:href="#21" y="39.078"/><use xlink:href="#22" y="41.249"/><use xlink:href="#23" y="43.42"/><use xlink:href="#24" y="45.591"/><use xlink:href="#25" y="47.762"/><use xlink:href="#26" y="49.933"/><use xlink:href="#27" y="52.104"/><use xlink:href="#28" y="54.275"/><use xlink:href="#29" y="56.446"/><use xlink:href="#30" y="58.617"/><text y="62.458" class="f">$</text><text x="2.004" y="62.458" class="f">./spoon_q</text></svg><svg x="4998"><use xlink:href="#a"/><use xlink:href="#b" x="12.996" y="60.763"/><use xlink:href="#3"/><use xlink:href="#4" y="2.171"/><use xlink:href="#5" y="4.342"/><use xlink:href="#6" y="6.513"/><use xlink:href="#7" y="8.684"/><use xlink:href="#8" y="10.855"/><use xlink:href="#9" y="13.026"/><use xlink:href="#10" y="15.197"/><use xlink:href="#11" y="17.368"/><use xlink:href="#12" y="19.539"/><use xlink:href="#13" y="21.71"/><use xlink:href="#14" y="23.881"/><use xlink:href="#15" y="26.052"/><use xlink:href="#16" y="28.223"/><use xlink:href="#17" y="30.394"/><use xlink:href="#18" y="32.565"/><use xlink:href="#19" y="34.736"/><use xlink:href="#20" y="36.907"/><use xlink:href="#21" y="39.078"/><use xlink:href="#22" y="41.249"/><use xlink:href="#23" y="43.42"/><use xlink:href="#24" y="45.591"/><use xlink:href="#25" y="47.762"/><use xlink:href="#26" y="49.933"/><use xlink:href="#27" y="52.104"/><use xlink:href="#28" y="54.275"/><use xlink:href="#29" y="56.446"/><use xlink:href="#30" y="58.617"/><text y="62.458" class="f">$</text><text x="2.004" y="62.458" class="f">./spoon_q</text><text x="12.024" y="62.458" class="f">!</text></svg><svg x="5145"><use xlink:href="#a"/><use xlink:href="#b" x="13.996" y="60.763"/><use xlink:href="#3"/><use xlink:href="#4" y="2.171"/><use xlink:href="#5" y="4.342"/><use xlink:href="#6" y="6.513"/><use xlink:href="#7" y="8.684"/><use xlink:href="#8" y="10.855"/><use xlink:href="#9" y="13.026"/><use xlink:href="#10" y="15.197"/><use xlink:href="#11" y="17.368"/><use xlink:href="#12" y="19.539"/><use xlink:href="#13" y="21.71"/><use xlink:href="#14" y="23.881"/><use xlink:href="#15" y="26.052"/><use xlink:href="#16" y="28.223"/><use xlink:href="#17" y="30.394"/><use xlink:href="#18" y="32.565"/><use xlink:href="#19" y="34.736"/><use xlink:href="#20" y="36.907"/><use xlink:href="#21" y="39.078"/><use xlink:href="#22" y="41.249"/><use xlink:href="#23" y="43.42"/><use xlink:href="#24" y="45.591"/><use xlink:href="#25" y="47.762"/><use xlink:href="#26" y="49.933"/><use xlink:href="#27" y="52.104"/><use xlink:href="#28" y="54.275"/><use xlink:href="#29" y="56.446"/><use xlink:href="#30" y="58.617"/><text y="62.458" class="f">$</text><text x="2.004" y="62.458" class="f">./spoon_q</text><text x="12.024" y="62.458" class="f">!$</text></svg><svg x="5292"><use xlink:href="#a"/><use xlink:href="#b" x="28.996" y="60.763"/><use xlink:href="#3"/><use xlink:href="#4" y="2.171"/><use xlink:href="#5" y="4.342"/><use xlink:href="#6" y="6.513"/><use xlink:href="#7" y="8.684"/><use xlink:href="#8" y="10.855"/><use xlink:href="#9" y="13.026"/><use xlink:href="#10" y="15.197"/><use xlink:href="#11" y="17.368"/><use xlink:href="#12" y="19.539"/><use xlink:href="#13" y="21.71"/><use xlink:href="#14" y="23.881"/><use xlink:href="#15" y="26.052"/><use xlink:href="#16" y="28.223"/><use xlink:href="#17" y="30.394"/><use xlink:href="#18" y="32.565"/><use xlink:href="#19" y="34.736"/><use xlink:href="#20" y="36.907"/><use xlink:href="#21" y="39.078"/><use xlink:href="#22" y="41.249"/><use xlink:href="#23" y="43.42"/><use xlink:href="#24" y="45.591"/><use xlink:href="#25" y="47.762"/><use xlink:href="#26" y="49.933"/><use xlink:href="#27" y="52.104"/><use xlink:href="#28" y="54.275"/><use xlink:href="#29" y="56.446"/><use xlink:href="#30" y="58.617"/><use xlink:href="#31" y="60.788"/></svg><svg x="5439"><use xlink:href="#a"/><use xlink:href="#b" x="-.004" y="62.934"/><use xlink:href="#3"/><use xlink:href="#4" y="2.171"/><use xlink:href="#5" y="4.342"/><use xlink:href="#6" y="6.513"/><use xlink:href="#7" y="8.684"/><use xlink:href="#8" y="10.855"/><use xlink:href="#9" y="13.026"/><use xlink:href="#10" y="15.197"/><use xlink:href="#11" y="17.368"/><use xlink:href="#12" y="19.539"/><use xlink:href="#13" y="21.71"/><use xlink:href="#14" y="23.881"/><use xlink:href="#15" y="26.052"/><use xlink:href="#16" y="28.223"/><use xlink:href="#17" y="30.394"/><use xlink:href="#18" y="32.565"/><use xlink:href="#19" y="34.736"/><use xlink:href="#20" y="36.907"/><use xlink:href="#21" y="39.078"/><use xlink:href="#22" y="41.249"/><use xlink:href="#23" y="43.42"/><use xlink:href="#24" y="45.591"/><use xlink:href="#25" y="47.762"/><use xlink:href="#26" y="49.933"/><use xlink:href="#27" y="52.104"/><use xlink:href="#28" y="54.275"/><use xlink:href="#29" y="56.446"/><use xlink:href="#30" y="58.617"/><use xlink:href="#31" y="60.788"/></svg><svg x="5586"><use xlink:href="#a"/><use xlink:href="#b" x="-.004" y="67.276"/><use xlink:href="#3"/><use xlink:href="#4" y="2.171"/><use xlink:href="#5" y="4.342"/><use xlink:href="#6" y="6.513"/><use xlink:href="#7" y="8.684"/><use xlink:href="#8" y="10.855"/><use xlink:href="#9" y="13.026"/><use xlink:href="#10" y="15.197"/><use xlink:href="#11" y="17.368"/><use xlink:href="#12" y="19.539"/><use xlink:href="#13" y="21.71"/><use xlink:href="#14" y="23.881"/><use xlink:href="#15" y="26.052"/><use xlink:href="#16" y="28.223"/><use xlink:href="#17" y="30.394"/><use xlink:href="#18" y="32.565"/><use xlink:href="#19" y="34.736"/><use xlink:href="#20" y="36.907"/><use xlink:href="#21" y="39.078"/><use xlink:href="#22" y="41.249"/><use xlink:href="#23" y="43.42"/><use xlink:href="#24" y="45.591"/><use xlink:href="#25" y="47.762"/><use xlink:href="#26" y="49.933"/><use xlink:href="#27" y="52.104"/><use xlink:href="#28" y="54.275"/><use xlink:href="#29" y="56.446"/><use xlink:href="#30" y="58.617"/><use xlink:href="#31" y="60.788"/><use xlink:href="#32" y="62.959"/></svg><svg x="5733"><use xlink:href="#a"/><use xlink:href="#b" x="-.004" y="71.618"/><use xlink:href="#3"/><use xlink:href="#4" y="2.171"/><use xlink:href="#5" y="4.342"/><use xlink:href="#6" y="6.513"/><use xlink:href="#7" y="8.684"/><use xlink:href="#8" y="10.855"/><use xlink:href="#9" y="13.026"/><use xlink:href="#10" y="15.197"/><use xlink:href="#11" y="17.368"/><use xlink:href="#12" y="19.539"/><use xlink:href="#13" y="21.71"/><use xlink:href="#14" y="23.881"/><use xlink:href="#15" y="26.052"/><use xlink:href="#16" y="28.223"/><use xlink:href="#17" y="30.394"/><use xlink:href="#18" y="32.565"/><use xlink:href="#19" y="34.736"/><use xlink:href="#20" y="36.907"/><use xlink:href="#21" y="39.078"/><use xlink:href="#22" y="41.249"/><use xlink:href="#23" y="43.42"/><use xlink:href="#24" y="45.591"/><use xlink:href="#25" y="47.762"/><use xlink:href="#26" y="49.933"/><use xlink:href="#27" y="52.104"/><use xlink:href="#28" y="54.275"/><use xlink:href="#29" y="56.446"/><use xlink:href="#30" y="58.617"/><use xlink:href="#31" y="60.788"/><use xlink:href="#32" y="62.959"/><use xlink:href="#33" y="67.301"/></svg><svg x="5880"><use xlink:href="#a"/><use xlink:href="#b" x="-.004" y="84.644"/><use xlink:href="#9"/><use xlink:href="#10" y="2.171"/><use xlink:href="#11" y="4.342"/><use xlink:href="#12" y="6.513"/><use xlink:href="#13" y="8.684"/><use xlink:href="#14" y="10.855"/><use xlink:href="#15" y="13.026"/><use xlink:href="#16" y="15.197"/><use xlink:href="#17" y="17.368"/><use xlink:href="#18" y="19.539"/><use xlink:href="#19" y="21.71"/><use xlink:href="#20" y="23.881"/><use xlink:href="#21" y="26.052"/><use xlink:href="#22" y="28.223"/><use xlink:href="#23" y="30.394"/><use xlink:href="#24" y="32.565"/><use xlink:href="#25" y="34.736"/><use xlink:href="#26" y="36.907"/><use xlink:href="#27" y="39.078"/><use xlink:href="#28" y="41.249"/><use xlink:href="#29" y="43.42"/><use xlink:href="#30" y="45.591"/><use xlink:href="#31" y="47.762"/><use xlink:href="#32" y="49.933"/><use xlink:href="#33" y="54.275"/><use xlink:href="#34" y="58.617"/><use xlink:href="#35" y="60.788"/><use xlink:href="#36" y="62.959"/><use xlink:href="#37" y="65.13"/><use xlink:href="#38" y="67.301"/><use xlink:href="#39" y="69.472"/><use xlink:href="#40" y="71.643"/><use xlink:href="#41" y="73.814"/><use xlink:href="#42" y="75.985"/><use xlink:href="#43" y="78.156"/><use xlink:href="#44" y="80.327"/><use xlink:href="#45" y="82.498"/></svg><svg x="6027"><use xlink:href="#a"/><use xlink:href="#b" x="-.004" y="84.644"/><use xlink:href="#9"/><use xlink:href="#10" y="2.171"/><use xlink:href="#11" y="4.342"/><use xlink:href="#12" y="6.513"/><use xlink:href="#13" y="8.684"/><use xlink:href="#14" y="10.855"/><use xlink:href="#15" y="13.026"/><use xlink:href="#16" y="15.197"/><use xlink:href="#17" y="17.368"/><use xlink:href="#18" y="19.539"/><use xlink:href="#19" y="21.71"/><use xlink:href="#20" y="23.881"/><use xlink:href="#21" y="26.052"/><use xlink:href="#22" y="28.223"/><use xlink:href="#23" y="30.394"/><use xlink:href="#24" y="32.565"/><use xlink:href="#25" y="34.736"/><use xlink:href="#26" y="36.907"/><use xlink:href="#27" y="39.078"/><use xlink:href="#28" y="41.249"/><use xlink:href="#29" y="43.42"/><use xlink:href="#30" y="45.591"/><use xlink:href="#31" y="47.762"/><use xlink:href="#32" y="49.933"/><use xlink:href="#33" y="54.275"/><use xlink:href="#34" y="58.617"/><use xlink:href="#35" y="60.788"/><use xlink:href="#36" y="62.959"/><use xlink:href="#37" y="65.13"/><use xlink:href="#38" y="67.301"/><use xlink:href="#39" y="69.472"/><use xlink:href="#40" y="71.643"/><use xlink:href="#41" y="73.814"/><use xlink:href="#42" y="75.985"/><use xlink:href="#43" y="78.156"/><use xlink:href="#44" y="80.327"/><use xlink:href="#45" y="82.498"/></svg><svg x="6174"><use xlink:href="#a"/><use xlink:href="#b" x="1.996" y="84.644"/><use xlink:href="#9"/><use xlink:href="#10" y="2.171"/><use xlink:href="#11" y="4.342"/><use xlink:href="#12" y="6.513"/><use xlink:href="#13" y="8.684"/><use xlink:href="#14" y="10.855"/><use xlink:href="#15" y="13.026"/><use xlink:href="#16" y="15.197"/><use xlink:href="#17" y="17.368"/><use xlink:href="#18" y="19.539"/><use xlink:href="#19" y="21.71"/><use xlink:href="#20" y="23.881"/><use xlink:href="#21" y="26.052"/><use xlink:href="#22" y="28.223"/><use xlink:href="#23" y="30.394"/><use xlink:href="#24" y="32.565"/><use xlink:href="#25" y="34.736"/><use xlink:href="#26" y="36.907"/><use xlink:href="#27" y="39.078"/><use xlink:href="#28" y="41.249"/><use xlink:href="#29" y="43.42"/><use xlink:href="#30" y="45.591"/><use xlink:href="#31" y="47.762"/><use xlink:href="#32" y="49.933"/><use xlink:href="#33" y="54.275"/><use xlink:href="#34" y="58.617"/><use xlink:href="#35" y="60.788"/><use xlink:href="#36" y="62.959"/><use xlink:href="#37" y="65.13"/><use xlink:href="#38" y="67.301"/><use xlink:href="#39" y="69.472"/><use xlink:href="#40" y="71.643"/><use xlink:href="#41" y="73.814"/><use xlink:href="#42" y="75.985"/><use xlink:href="#43" y="78.156"/><use xlink:href="#44" y="80.327"/><use xlink:href="#45" y="82.498"/><use xlink:href="#1" y="84.669"/></svg><svg x="6321"><use xlink:href="#a"/><use xlink:href="#b" x="-.004" y="84.644"/><use xlink:href="#10"/><use xlink:href="#11" y="2.171"/><use xlink:href="#12" y="4.342"/><use xlink:href="#13" y="6.513"/><use xlink:href="#14" y="8.684"/><use xlink:href="#15" y="10.855"/><use xlink:href="#16" y="13.026"/><use xlink:href="#17" y="15.197"/><use xlink:href="#18" y="17.368"/><use xlink:href="#19" y="19.539"/><use xlink:href="#20" y="21.71"/><use xlink:href="#21" y="23.881"/><use xlink:href="#22" y="26.052"/><use xlink:href="#23" y="28.223"/><use xlink:href="#24" y="30.394"/><use xlink:href="#25" y="32.565"/><use xlink:href="#26" y="34.736"/><use xlink:href="#27" y="36.907"/><use xlink:href="#28" y="39.078"/><use xlink:href="#29" y="41.249"/><use xlink:href="#30" y="43.42"/><use xlink:href="#31" y="45.591"/><use xlink:href="#32" y="47.762"/><use xlink:href="#33" y="52.104"/><use xlink:href="#34" y="56.446"/><use xlink:href="#35" y="58.617"/><use xlink:href="#36" y="60.788"/><use xlink:href="#37" y="62.959"/><use xlink:href="#38" y="65.13"/><use xlink:href="#39" y="67.301"/><use xlink:href="#40" y="69.472"/><use xlink:href="#41" y="71.643"/><use xlink:href="#42" y="73.814"/><use xlink:href="#43" y="75.985"/><use xlink:href="#44" y="78.156"/><use xlink:href="#45" y="80.327"/><use xlink:href="#1" y="82.498"/></svg></svg></g></g></svg></svg>