<svg xmlns="http://www.w3.org/2000/svg" xmlns:xlink="http://www.w3.org/1999/xlink" width="900" height="868.4"><rect width="900" height="868.4" rx="0" ry="0" class="a"/><svg height="868.4" viewBox="0 0 90 86.84" width="900" xmlns="http://www.w3.org/2000/svg" xmlns:xlink="http://www.w3.org/1999/xlink"><style>@keyframes h{0%{transform:translateX(0)}.1%{transform:translateX(-90px)}10.56%{transform:translateX(-180px)}12.68%{transform:translateX(-270px)}13.41%{transform:translateX(-360px)}13.73%{transform:translateX(-450px)}17.07%{transform:translateX(-540px)}18.4%{transform:translateX(-630px)}22.24%{transform:translateX(-720px)}22.98%{transform:translateX(-810px)}23.76%{transform:translateX(-900px)}24.75%{transform:translateX(-990px)}25.26%{transform:translateX(-1080px)}25.69%{transform:translateX(-1170px)}25.9%{transform:translateX(-1260px)}26.48%{transform:translateX(-1350px)}28.03%{transform:translateX(-1440px)}29.78%{transform:translateX(-1530px)}30.14%{transform:translateX(-1620px)}30.47%{transform:translateX(-1710px)}30.8%{transform:translateX(-1800px)}31.08%{transform:translateX(-1890px)}32.13%{transform:translateX(-1980px)}33.62%{transform:translateX(-2070px)}33.64%{transform:translateX(-2250px)}33.65%{transform:translateX(-2340px)}41.8%{transform:translateX(-2430px)}42.13%{transform:translateX(-2520px)}42.79%{transform:translateX(-2610px)}43.18%{transform:translateX(-2700px)}43.92%{transform:translateX(-2790px)}44.5%{transform:translateX(-2880px)}45.13%{transform:translateX(-2970px)}52.2%{transform:translateX(-3060px)}52.92%{transform:translateX(-3150px)}54.13%{transform:translateX(-3240px)}56.38%{transform:translateX(-3330px)}96.16%{transform:translateX(-3510px)}to{transform:translateX(-3600px)}}.a{fill:#282d35}.e{fill:#b9c0cb;white-space:pre}</style><g font-family="Monaco,Consolas,Menlo,'Bitstream Vera Sans Mono','Powerline Symbols',monospace" font-size="1.67"><defs><symbol id="1"><path fill="#b9c0cb" d="M0 0h1v2.171H0z"/><text y="1.67" style="white-space:pre" fill="#282d35" font-weight="700">%</text></symbol><symbol id="2"><text y="1.67" class="e">$</text></symbol><symbol id="3"><text y="1.67" class="e">$</text><text x="2.004" y="1.67" class="e">.</text></symbol><symbol id="4"><text y="1.67" class="e">$</text><text x="2.004" y="1.67" class="e">cat</text></symbol><symbol id="5"><text y="1.67" class="e">$</text><text x="2.004" y="1.67" class="e">cat</text><text x="6.012" y="1.67" class="e">examples/eight_queen.spoonq</text></symbol><symbol id="6"><text y="1.67" class="e">type</text><text x="5.01" y="1.67" class="e">location</text><text x="14.028" y="1.67" class="e">:=</text><text x="17.034" y="1.67" class="e">1</text><text x="19.038" y="1.67" class="e">..</text><text x="22.044" y="1.67" class="e">5</text></symbol><symbol id="7"><text y="1.67" class="e">location</text><text x="9.018" y="1.67" class="e">[@c1,</text><text x="15.03" y="1.67" class="e">@c2,</text><text x="20.04" y="1.67" class="e">@c3,</text><text x="25.05" y="1.67" class="e">@c4,</text><text x="30.06" y="1.67" class="e">@c5]</text><text x="35.07" y="1.67" class="e">:</text><text x="37.074" y="1.67" class="e">rows</text></symbol><symbol id="8"><text y="1.67" class="e">different(rows)</text></symbol><symbol id="9"><text y="1.67" class="e">solve(rows)</text></symbol><symbol id="10"><text y="1.67" class="e">print(rows)</text></symbol><symbol id="11"><text y="1.67" class="e">$</text><text x="2.004" y="1.67" class="e">./spoon_q</text><text x="12.024" y="1.67" class="e">examples/eight_queen.spoonq</text></symbol><symbol id="12"><text y="1.67" class="e">@c1</text><text x="4.008" y="1.67" class="e">=</text><text x="6.012" y="1.67" class="e">2</text></symbol><symbol id="13"><text y="1.67" class="e">@c5</text><text x="4.008" y="1.67" class="e">=</text><text x="6.012" y="1.67" class="e">1</text></symbol><symbol id="14"><text y="1.67" class="e">@c3</text><text x="4.008" y="1.67" class="e">=</text><text x="6.012" y="1.67" class="e">3</text></symbol><symbol id="15"><text y="1.67" class="e">@c2</text><text x="4.008" y="1.67" class="e">=</text><text x="6.012" y="1.67" class="e">4</text></symbol><symbol id="16"><text y="1.67" class="e">@c4</text><text x="4.008" y="1.67" class="e">=</text><text x="6.012" y="1.67" class="e">5</text></symbol><symbol id="a"><path fill="transparent" d="M0 0h90v40H0z"/></symbol><symbol id="b"><path fill="#6f7683" d="M0 0h1.102v2.171H0z"/></symbol></defs><path class="a" d="M0 0h90v86.84H0z"/><g style="animation-duration:32.011503s;animation-iteration-count:infinite;animation-name:h;animation-timing-function:steps(1,end)"><svg width="3690"><svg><use xlink:href="#a"/><use xlink:href="#b" x="-.004"/></svg><svg x="90"><use xlink:href="#a"/><use xlink:href="#b" x="1.996" y="2.146"/><use xlink:href="#1"/><use xlink:href="#2" y="2.171"/></svg><svg x="180"><use xlink:href="#a"/><use xlink:href="#b" x="2.996" y="2.146"/><use xlink:href="#1"/><use xlink:href="#3" y="2.171"/></svg><svg x="270"><use xlink:href="#a"/><use xlink:href="#b" x="1.996" y="2.146"/><use xlink:href="#1"/><use xlink:href="#2" y="2.171"/></svg><svg x="360"><use xlink:href="#a"/><use xlink:href="#b" x="2.996" y="2.146"/><use xlink:href="#1"/><text y="3.841" class="e">$</text><text x="2.004" y="3.841" class="e">c</text></svg><svg x="450"><use xlink:href="#a"/><use xlink:href="#b" x="3.996" y="2.146"/><use xlink:href="#1"/><text y="3.841" class="e">$</text><text x="2.004" y="3.841" class="e">ca</text></svg><svg x="540"><use xlink:href="#a"/><use xlink:href="#b" x="4.996" y="2.146"/><use xlink:href="#1"/><use xlink:href="#4" y="2.171"/></svg><svg x="630"><use xlink:href="#a"/><use xlink:href="#b" x="5.996" y="2.146"/><use xlink:href="#1"/><use xlink:href="#4" y="2.171"/></svg><svg x="720"><use xlink:href="#a"/><use xlink:href="#b" x="6.996" y="2.146"/><use xlink:href="#1"/><text y="3.841" class="e">$</text><text x="2.004" y="3.841" class="e">cat</text><text x="6.012" y="3.841" class="e">e</text></svg><svg x="810"><use xlink:href="#a"/><use xlink:href="#b" x="7.996" y="2.146"/><use xlink:href="#1"/><text y="3.841" class="e">$</text><text x="2.004" y="3.841" class="e">cat</text><text x="6.012" y="3.841" class="e">ex</text></svg><svg x="900"><use xlink:href="#a"/><use xlink:href="#b" x="8.996" y="2.146"/><use xlink:href="#1"/><text y="3.841" class="e">$</text><text x="2.004" y="3.841" class="e">cat</text><text x="6.012" y="3.841" class="e">exa</text></svg><svg x="990"><use xlink:href="#a"/><use xlink:href="#b" x="9.996" y="2.146"/><use xlink:href="#1"/><text y="3.841" class="e">$</text><text x="2.004" y="3.841" class="e">cat</text><text x="6.012" y="3.841" class="e">exam</text></svg><svg x="1080"><use xlink:href="#a"/><use xlink:href="#b" x="10.996" y="2.146"/><use xlink:href="#1"/><text y="3.841" class="e">$</text><text x="2.004" y="3.841" class="e">cat</text><text x="6.012" y="3.841" class="e">examp</text></svg><svg x="1170"><use xlink:href="#a"/><use xlink:href="#b" x="11.996" y="2.146"/><use xlink:href="#1"/><text y="3.841" class="e">$</text><text x="2.004" y="3.841" class="e">cat</text><text x="6.012" y="3.841" class="e">exampl</text></svg><svg x="1260"><use xlink:href="#a"/><use xlink:href="#b" x="12.996" y="2.146"/><use xlink:href="#1"/><text y="3.841" class="e">$</text><text x="2.004" y="3.841" class="e">cat</text><text x="6.012" y="3.841" class="e">example</text></svg><svg x="1350"><use xlink:href="#a"/><use xlink:href="#b" x="13.996" y="2.146"/><use xlink:href="#1"/><text y="3.841" class="e">$</text><text x="2.004" y="3.841" class="e">cat</text><text x="6.012" y="3.841" class="e">examples</text></svg><svg x="1440"><use xlink:href="#a"/><use xlink:href="#b" x="14.996" y="2.146"/><use xlink:href="#1"/><text y="3.841" class="e">$</text><text x="2.004" y="3.841" class="e">cat</text><text x="6.012" y="3.841" class="e">examples/</text></svg><svg x="1530"><use xlink:href="#a"/><use xlink:href="#b" x="15.996" y="2.146"/><use xlink:href="#1"/><text y="3.841" class="e">$</text><text x="2.004" y="3.841" class="e">cat</text><text x="6.012" y="3.841" class="e">examples/e</text></svg><svg x="1620"><use xlink:href="#a"/><use xlink:href="#b" x="16.996" y="2.146"/><use xlink:href="#1"/><text y="3.841" class="e">$</text><text x="2.004" y="3.841" class="e">cat</text><text x="6.012" y="3.841" class="e">examples/ei</text></svg><svg x="1710"><use xlink:href="#a"/><use xlink:href="#b" x="17.996" y="2.146"/><use xlink:href="#1"/><text y="3.841" class="e">$</text><text x="2.004" y="3.841" class="e">cat</text><text x="6.012" y="3.841" class="e">examples/eig</text></svg><svg x="1800"><use xlink:href="#a"/><use xlink:href="#b" x="18.996" y="2.146"/><use xlink:href="#1"/><text y="3.841" class="e">$</text><text x="2.004" y="3.841" class="e">cat</text><text x="6.012" y="3.841" class="e">examples/eigh</text></svg><svg x="1890"><use xlink:href="#a"/><use xlink:href="#b" x="19.996" y="2.146"/><use xlink:href="#1"/><text y="3.841" class="e">$</text><text x="2.004" y="3.841" class="e">cat</text><text x="6.012" y="3.841" class="e">examples/eight</text></svg><svg x="1980"><use xlink:href="#a"/><use xlink:href="#b" x="33.996" y="2.146"/><use xlink:href="#1"/><use xlink:href="#5" y="2.171"/></svg><svg x="2070"><use xlink:href="#a"/><use xlink:href="#b" x="-.004" y="4.317"/><use xlink:href="#1"/><use xlink:href="#5" y="2.171"/></svg><svg x="2160"><use xlink:href="#a"/><use xlink:href="#b" x="-.004" y="15.172"/><use xlink:href="#1"/><use xlink:href="#5" y="2.171"/><use xlink:href="#6" y="4.342"/><use xlink:href="#7" y="6.513"/><use xlink:href="#8" y="8.684"/><use xlink:href="#9" y="10.855"/><use xlink:href="#10" y="13.026"/></svg><svg x="2250"><use xlink:href="#a"/><use xlink:href="#b" x="1.996" y="17.343"/><use xlink:href="#1"/><use xlink:href="#5" y="2.171"/><use xlink:href="#6" y="4.342"/><use xlink:href="#7" y="6.513"/><use xlink:href="#8" y="8.684"/><use xlink:href="#9" y="10.855"/><use xlink:href="#10" y="13.026"/><use xlink:href="#1" y="15.197"/><use xlink:href="#2" y="17.368"/></svg><svg x="2340"><use xlink:href="#a"/><use xlink:href="#b" x="1.996" y="17.343"/><use xlink:href="#1"/><use xlink:href="#5" y="2.171"/><use xlink:href="#6" y="4.342"/><use xlink:href="#7" y="6.513"/><use xlink:href="#8" y="8.684"/><use xlink:href="#9" y="10.855"/><use xlink:href="#10" y="13.026"/><use xlink:href="#1" y="15.197"/><use xlink:href="#2" y="17.368"/></svg><svg x="2430"><use xlink:href="#a"/><use xlink:href="#b" x="2.996" y="17.343"/><use xlink:href="#1"/><use xlink:href="#5" y="2.171"/><use xlink:href="#6" y="4.342"/><use xlink:href="#7" y="6.513"/><use xlink:href="#8" y="8.684"/><use xlink:href="#9" y="10.855"/><use xlink:href="#10" y="13.026"/><use xlink:href="#1" y="15.197"/><use xlink:href="#3" y="17.368"/></svg><svg x="2520"><use xlink:href="#a"/><use xlink:href="#b" x="3.996" y="17.343"/><use xlink:href="#1"/><use xlink:href="#5" y="2.171"/><use xlink:href="#6" y="4.342"/><use xlink:href="#7" y="6.513"/><use xlink:href="#8" y="8.684"/><use xlink:href="#9" y="10.855"/><use xlink:href="#10" y="13.026"/><use xlink:href="#1" y="15.197"/><text y="19.038" class="e">$</text><text x="2.004" y="19.038" class="e">./</text></svg><svg x="2610"><use xlink:href="#a"/><use xlink:href="#b" x="4.996" y="17.343"/><use xlink:href="#1"/><use xlink:href="#5" y="2.171"/><use xlink:href="#6" y="4.342"/><use xlink:href="#7" y="6.513"/><use xlink:href="#8" y="8.684"/><use xlink:href="#9" y="10.855"/><use xlink:href="#10" y="13.026"/><use xlink:href="#1" y="15.197"/><text y="19.038" class="e">$</text><text x="2.004" y="19.038" class="e">./s</text></svg><svg x="2700"><use xlink:href="#a"/><use xlink:href="#b" x="5.996" y="17.343"/><use xlink:href="#1"/><use xlink:href="#5" y="2.171"/><use xlink:href="#6" y="4.342"/><use xlink:href="#7" y="6.513"/><use xlink:href="#8" y="8.684"/><use xlink:href="#9" y="10.855"/><use xlink:href="#10" y="13.026"/><use xlink:href="#1" y="15.197"/><text y="19.038" class="e">$</text><text x="2.004" y="19.038" class="e">./sp</text></svg><svg x="2790"><use xlink:href="#a"/><use xlink:href="#b" x="6.996" y="17.343"/><use xlink:href="#1"/><use xlink:href="#5" y="2.171"/><use xlink:href="#6" y="4.342"/><use xlink:href="#7" y="6.513"/><use xlink:href="#8" y="8.684"/><use xlink:href="#9" y="10.855"/><use xlink:href="#10" y="13.026"/><use xlink:href="#1" y="15.197"/><text y="19.038" class="e">$</text><text x="2.004" y="19.038" class="e">./spo</text></svg><svg x="2880"><use xlink:href="#a"/><use xlink:href="#b" x="7.996" y="17.343"/><use xlink:href="#1"/><use xlink:href="#5" y="2.171"/><use xlink:href="#6" y="4.342"/><use xlink:href="#7" y="6.513"/><use xlink:href="#8" y="8.684"/><use xlink:href="#9" y="10.855"/><use xlink:href="#10" y="13.026"/><use xlink:href="#1" y="15.197"/><text y="19.038" class="e">$</text><text x="2.004" y="19.038" class="e">./spoo</text></svg><svg x="2970"><use xlink:href="#a"/><use xlink:href="#b" x="11.996" y="17.343"/><use xlink:href="#1"/><use xlink:href="#5" y="2.171"/><use xlink:href="#6" y="4.342"/><use xlink:href="#7" y="6.513"/><use xlink:href="#8" y="8.684"/><use xlink:href="#9" y="10.855"/><use xlink:href="#10" y="13.026"/><use xlink:href="#1" y="15.197"/><text y="19.038" class="e">$</text><text x="2.004" y="19.038" class="e">./spoon_q</text></svg><svg x="3060"><use xlink:href="#a"/><use xlink:href="#b" x="12.996" y="17.343"/><use xlink:href="#1"/><use xlink:href="#5" y="2.171"/><use xlink:href="#6" y="4.342"/><use xlink:href="#7" y="6.513"/><use xlink:href="#8" y="8.684"/><use xlink:href="#9" y="10.855"/><use xlink:href="#10" y="13.026"/><use xlink:href="#1" y="15.197"/><text y="19.038" class="e">$</text><text x="2.004" y="19.038" class="e">./spoon_q</text><text x="12.024" y="19.038" class="e">!</text></svg><svg x="3150"><use xlink:href="#a"/><use xlink:href="#b" x="13.996" y="17.343"/><use xlink:href="#1"/><use xlink:href="#5" y="2.171"/><use xlink:href="#6" y="4.342"/><use xlink:href="#7" y="6.513"/><use xlink:href="#8" y="8.684"/><use xlink:href="#9" y="10.855"/><use xlink:href="#10" y="13.026"/><use xlink:href="#1" y="15.197"/><text y="19.038" class="e">$</text><text x="2.004" y="19.038" class="e">./spoon_q</text><text x="12.024" y="19.038" class="e">!$</text></svg><svg x="3240"><use xlink:href="#a"/><use xlink:href="#b" x="38.996" y="17.343"/><use xlink:href="#1"/><use xlink:href="#5" y="2.171"/><use xlink:href="#6" y="4.342"/><use xlink:href="#7" y="6.513"/><use xlink:href="#8" y="8.684"/><use xlink:href="#9" y="10.855"/><use xlink:href="#10" y="13.026"/><use xlink:href="#1" y="15.197"/><use xlink:href="#11" y="17.368"/></svg><svg x="3330"><use xlink:href="#a"/><use xlink:href="#b" x="-.004" y="19.514"/><use xlink:href="#1"/><use xlink:href="#5" y="2.171"/><use xlink:href="#6" y="4.342"/><use xlink:href="#7" y="6.513"/><use xlink:href="#8" y="8.684"/><use xlink:href="#9" y="10.855"/><use xlink:href="#10" y="13.026"/><use xlink:href="#1" y="15.197"/><use xlink:href="#11" y="17.368"/></svg><svg x="3420"><use xlink:href="#a"/><use xlink:href="#b" x="-.004" y="30.369"/><use xlink:href="#1"/><use xlink:href="#5" y="2.171"/><use xlink:href="#6" y="4.342"/><use xlink:href="#7" y="6.513"/><use xlink:href="#8" y="8.684"/><use xlink:href="#9" y="10.855"/><use xlink:href="#10" y="13.026"/><use xlink:href="#1" y="15.197"/><use xlink:href="#11" y="17.368"/><use xlink:href="#12" y="19.539"/><use xlink:href="#13" y="21.71"/><use xlink:href="#14" y="23.881"/><use xlink:href="#15" y="26.052"/><use xlink:href="#16" y="28.223"/></svg><svg x="3510"><use xlink:href="#a"/><use xlink:href="#b" x="1.996" y="32.54"/><use xlink:href="#1"/><use xlink:href="#5" y="2.171"/><use xlink:href="#6" y="4.342"/><use xlink:href="#7" y="6.513"/><use xlink:href="#8" y="8.684"/><use xlink:href="#9" y="10.855"/><use xlink:href="#10" y="13.026"/><use xlink:href="#1" y="15.197"/><use xlink:href="#11" y="17.368"/><use xlink:href="#12" y="19.539"/><use xlink:href="#13" y="21.71"/><use xlink:href="#14" y="23.881"/><use xlink:href="#15" y="26.052"/><use xlink:href="#16" y="28.223"/><use xlink:href="#1" y="30.394"/><use xlink:href="#2" y="32.565"/></svg><svg x="3600"><use xlink:href="#a"/><use xlink:href="#b" x="-.004" y="34.711"/><use xlink:href="#1"/><use xlink:href="#5" y="2.171"/><use xlink:href="#6" y="4.342"/><use xlink:href="#7" y="6.513"/><use xlink:href="#8" y="8.684"/><use xlink:href="#9" y="10.855"/><use xlink:href="#10" y="13.026"/><use xlink:href="#1" y="15.197"/><use xlink:href="#11" y="17.368"/><use xlink:href="#12" y="19.539"/><use xlink:href="#13" y="21.71"/><use xlink:href="#14" y="23.881"/><use xlink:href="#15" y="26.052"/><use xlink:href="#16" y="28.223"/><use xlink:href="#1" y="30.394"/><use xlink:href="#2" y="32.565"/></svg></svg></g></g></svg></svg>