<svg xmlns="http://www.w3.org/2000/svg" xmlns:xlink="http://www.w3.org/1999/xlink" width="1510" height="928.4"><rect width="1510" height="928.4" rx="5" ry="5" class="a"/><svg y="0%" x="0%"><circle cx="20" cy="20" r="6" fill="#ff5f58"/><circle cx="40" cy="20" r="6" fill="#ffbd2e"/><circle cx="60" cy="20" r="6" fill="#18c132"/></svg><svg height="868.4" viewBox="0 0 147 86.84" width="1470" x="15" xmlns="http://www.w3.org/2000/svg" xmlns:xlink="http://www.w3.org/1999/xlink" y="50"><style>@keyframes i{0%{transform:translateX(0)}.1%{transform:translateX(-147px)}10.56%{transform:translateX(-294px)}12.68%{transform:translateX(-441px)}13.41%{transform:translateX(-588px)}13.73%{transform:translateX(-735px)}17.07%{transform:translateX(-882px)}18.4%{transform:translateX(-1029px)}22.24%{transform:translateX(-1176px)}22.98%{transform:translateX(-1323px)}23.76%{transform:translateX(-1470px)}24.75%{transform:translateX(-1617px)}25.26%{transform:translateX(-1764px)}25.69%{transform:translateX(-1911px)}25.9%{transform:translateX(-2058px)}26.48%{transform:translateX(-2205px)}28.03%{transform:translateX(-2352px)}29.78%{transform:translateX(-2499px)}30.14%{transform:translateX(-2646px)}30.47%{transform:translateX(-2793px)}30.8%{transform:translateX(-2940px)}31.08%{transform:translateX(-3087px)}32.13%{transform:translateX(-3234px)}33.62%{transform:translateX(-3381px)}33.64%{transform:translateX(-3675px)}33.65%{transform:translateX(-3822px)}41.8%{transform:translateX(-3969px)}42.13%{transform:translateX(-4116px)}42.79%{transform:translateX(-4263px)}43.18%{transform:translateX(-4410px)}43.92%{transform:translateX(-4557px)}44.5%{transform:translateX(-4704px)}45.13%{transform:translateX(-4851px)}52.2%{transform:translateX(-4998px)}52.92%{transform:translateX(-5145px)}54.13%{transform:translateX(-5292px)}56.38%{transform:translateX(-5439px)}96.16%{transform:translateX(-5733px)}to{transform:translateX(-5880px)}}.a{fill:#282d35}.f{fill:#b9c0cb;white-space:pre}</style><g font-family="Monaco,Consolas,Menlo,'Bitstream Vera Sans Mono','Powerline Symbols',monospace" font-size="1.67"><defs><symbol id="1"><text y="1.67" class="f">$</text></symbol><symbol id="2"><text y="1.67" class="f">$</text><text x="2.004" y="1.67" class="f">.</text></symbol><symbol id="3"><text y="1.67" class="f">$</text><text x="2.004" y="1.67" class="f">cat</text></symbol><symbol id="4"><text y="1.67" class="f">$</text><text x="2.004" y="1.67" class="f">cat</text><text x="6.012" y="1.67" class="f">examples/eight_queen.spoonq</text></symbol><symbol id="5"><text y="1.67" class="f">type</text><text x="5.01" y="1.67" class="f">location</text><text x="14.028" y="1.67" class="f">:=</text><text x="17.034" y="1.67" class="f">1</text><text x="19.038" y="1.67" class="f">..</text><text x="22.044" y="1.67" class="f">5</text></symbol><symbol id="6"><text y="1.67" class="f">location</text><text x="9.018" y="1.67" class="f">[@c1,</text><text x="15.03" y="1.67" class="f">@c2,</text><text x="20.04" y="1.67" class="f">@c3,</text><text x="25.05" y="1.67" class="f">@c4,</text><text x="30.06" y="1.67" class="f">@c5]</text><text x="35.07" y="1.67" class="f">:</text><text x="37.074" y="1.67" class="f">rows</text></symbol><symbol id="7"><text y="1.67" class="f">different(rows)</text></symbol><symbol id="8"><text y="1.67" class="f">solve(rows)</text></symbol><symbol id="9"><text y="1.67" class="f">print(rows)</text></symbol><symbol id="10"><text y="1.67" class="f">$</text><text x="2.004" y="1.67" class="f">./spoon_q</text><text x="12.024" y="1.67" class="f">examples/eight_queen.spoonq</text></symbol><symbol id="11"><text y="1.67" class="f">@c1</text><text x="4.008" y="1.67" class="f">=</text><text x="6.012" y="1.67" class="f">2</text></symbol><symbol id="12"><text y="1.67" class="f">@c5</text><text x="4.008" y="1.67" class="f">=</text><text x="6.012" y="1.67" class="f">1</text></symbol><symbol id="13"><text y="1.67" class="f">@c3</text><text x="4.008" y="1.67" class="f">=</text><text x="6.012" y="1.67" class="f">3</text></symbol><symbol id="14"><text y="1.67" class="f">@c2</text><text x="4.008" y="1.67" class="f">=</text><text x="6.012" y="1.67" class="f">4</text></symbol><symbol id="15"><text y="1.67" class="f">@c4</text><text x="4.008" y="1.67" class="f">=</text><text x="6.012" y="1.67" class="f">5</text></symbol><symbol id="a"><path fill="transparent" d="M0 0h147v40H0z"/></symbol><symbol id="b"><path fill="#6f7683" d="M0 0h1.102v2.171H0z"/></symbol></defs><path class="a" d="M0 0h147v86.84H0z"/><g style="animation-duration:32.011503s;animation-iteration-count:infinite;animation-name:i;animation-timing-function:steps(1,end)"><svg width="6027"><svg><use xlink:href="#a"/><use xlink:href="#b" x="-.004"/></svg><svg x="147"><use xlink:href="#a"/><use xlink:href="#b" x="1.996"/><use xlink:href="#1"/></svg><svg x="294"><use xlink:href="#a"/><use xlink:href="#b" x="2.996"/><use xlink:href="#2"/></svg><svg x="441"><use xlink:href="#a"/><use xlink:href="#b" x="1.996"/><use xlink:href="#1"/></svg><svg x="588"><use xlink:href="#a"/><use xlink:href="#b" x="2.996"/><text y="1.67" class="f">$</text><text x="2.004" y="1.67" class="f">c</text></svg><svg x="735"><use xlink:href="#a"/><use xlink:href="#b" x="3.996"/><text y="1.67" class="f">$</text><text x="2.004" y="1.67" class="f">ca</text></svg><svg x="882"><use xlink:href="#a"/><use xlink:href="#b" x="4.996"/><use xlink:href="#3"/></svg><svg x="1029"><use xlink:href="#a"/><use xlink:href="#b" x="5.996"/><use xlink:href="#3"/></svg><svg x="1176"><use xlink:href="#a"/><use xlink:href="#b" x="6.996"/><text y="1.67" class="f">$</text><text x="2.004" y="1.67" class="f">cat</text><text x="6.012" y="1.67" class="f">e</text></svg><svg x="1323"><use xlink:href="#a"/><use xlink:href="#b" x="7.996"/><text y="1.67" class="f">$</text><text x="2.004" y="1.67" class="f">cat</text><text x="6.012" y="1.67" class="f">ex</text></svg><svg x="1470"><use xlink:href="#a"/><use xlink:href="#b" x="8.996"/><text y="1.67" class="f">$</text><text x="2.004" y="1.67" class="f">cat</text><text x="6.012" y="1.67" class="f">exa</text></svg><svg x="1617"><use xlink:href="#a"/><use xlink:href="#b" x="9.996"/><text y="1.67" class="f">$</text><text x="2.004" y="1.67" class="f">cat</text><text x="6.012" y="1.67" class="f">exam</text></svg><svg x="1764"><use xlink:href="#a"/><use xlink:href="#b" x="10.996"/><text y="1.67" class="f">$</text><text x="2.004" y="1.67" class="f">cat</text><text x="6.012" y="1.67" class="f">examp</text></svg><svg x="1911"><use xlink:href="#a"/><use xlink:href="#b" x="11.996"/><text y="1.67" class="f">$</text><text x="2.004" y="1.67" class="f">cat</text><text x="6.012" y="1.67" class="f">exampl</text></svg><svg x="2058"><use xlink:href="#a"/><use xlink:href="#b" x="12.996"/><text y="1.67" class="f">$</text><text x="2.004" y="1.67" class="f">cat</text><text x="6.012" y="1.67" class="f">example</text></svg><svg x="2205"><use xlink:href="#a"/><use xlink:href="#b" x="13.996"/><text y="1.67" class="f">$</text><text x="2.004" y="1.67" class="f">cat</text><text x="6.012" y="1.67" class="f">examples</text></svg><svg x="2352"><use xlink:href="#a"/><use xlink:href="#b" x="14.996"/><text y="1.67" class="f">$</text><text x="2.004" y="1.67" class="f">cat</text><text x="6.012" y="1.67" class="f">examples/</text></svg><svg x="2499"><use xlink:href="#a"/><use xlink:href="#b" x="15.996"/><text y="1.67" class="f">$</text><text x="2.004" y="1.67" class="f">cat</text><text x="6.012" y="1.67" class="f">examples/e</text></svg><svg x="2646"><use xlink:href="#a"/><use xlink:href="#b" x="16.996"/><text y="1.67" class="f">$</text><text x="2.004" y="1.67" class="f">cat</text><text x="6.012" y="1.67" class="f">examples/ei</text></svg><svg x="2793"><use xlink:href="#a"/><use xlink:href="#b" x="17.996"/><text y="1.67" class="f">$</text><text x="2.004" y="1.67" class="f">cat</text><text x="6.012" y="1.67" class="f">examples/eig</text></svg><svg x="2940"><use xlink:href="#a"/><use xlink:href="#b" x="18.996"/><text y="1.67" class="f">$</text><text x="2.004" y="1.67" class="f">cat</text><text x="6.012" y="1.67" class="f">examples/eigh</text></svg><svg x="3087"><use xlink:href="#a"/><use xlink:href="#b" x="19.996"/><text y="1.67" class="f">$</text><text x="2.004" y="1.67" class="f">cat</text><text x="6.012" y="1.67" class="f">examples/eight</text></svg><svg x="3234"><use xlink:href="#a"/><use xlink:href="#b" x="33.996"/><use xlink:href="#4"/></svg><svg x="3381"><use xlink:href="#a"/><use xlink:href="#b" x="-.004" y="2.146"/><use xlink:href="#4"/></svg><svg x="3528"><use xlink:href="#a"/><use xlink:href="#b" x="-.004" y="13.001"/><use xlink:href="#4"/><use xlink:href="#5" y="2.171"/><use xlink:href="#6" y="4.342"/><use xlink:href="#7" y="6.513"/><use xlink:href="#8" y="8.684"/><use xlink:href="#9" y="10.855"/></svg><svg x="3675"><use xlink:href="#a"/><use xlink:href="#b" x="1.996" y="13.001"/><use xlink:href="#4"/><use xlink:href="#5" y="2.171"/><use xlink:href="#6" y="4.342"/><use xlink:href="#7" y="6.513"/><use xlink:href="#8" y="8.684"/><use xlink:href="#9" y="10.855"/><use xlink:href="#1" y="13.026"/></svg><svg x="3822"><use xlink:href="#a"/><use xlink:href="#b" x="1.996" y="13.001"/><use xlink:href="#4"/><use xlink:href="#5" y="2.171"/><use xlink:href="#6" y="4.342"/><use xlink:href="#7" y="6.513"/><use xlink:href="#8" y="8.684"/><use xlink:href="#9" y="10.855"/><use xlink:href="#1" y="13.026"/></svg><svg x="3969"><use xlink:href="#a"/><use xlink:href="#b" x="2.996" y="13.001"/><use xlink:href="#4"/><use xlink:href="#5" y="2.171"/><use xlink:href="#6" y="4.342"/><use xlink:href="#7" y="6.513"/><use xlink:href="#8" y="8.684"/><use xlink:href="#9" y="10.855"/><use xlink:href="#2" y="13.026"/></svg><svg x="4116"><use xlink:href="#a"/><use xlink:href="#b" x="3.996" y="13.001"/><use xlink:href="#4"/><use xlink:href="#5" y="2.171"/><use xlink:href="#6" y="4.342"/><use xlink:href="#7" y="6.513"/><use xlink:href="#8" y="8.684"/><use xlink:href="#9" y="10.855"/><text y="14.696" class="f">$</text><text x="2.004" y="14.696" class="f">./</text></svg><svg x="4263"><use xlink:href="#a"/><use xlink:href="#b" x="4.996" y="13.001"/><use xlink:href="#4"/><use xlink:href="#5" y="2.171"/><use xlink:href="#6" y="4.342"/><use xlink:href="#7" y="6.513"/><use xlink:href="#8" y="8.684"/><use xlink:href="#9" y="10.855"/><text y="14.696" class="f">$</text><text x="2.004" y="14.696" class="f">./s</text></svg><svg x="4410"><use xlink:href="#a"/><use xlink:href="#b" x="5.996" y="13.001"/><use xlink:href="#4"/><use xlink:href="#5" y="2.171"/><use xlink:href="#6" y="4.342"/><use xlink:href="#7" y="6.513"/><use xlink:href="#8" y="8.684"/><use xlink:href="#9" y="10.855"/><text y="14.696" class="f">$</text><text x="2.004" y="14.696" class="f">./sp</text></svg><svg x="4557"><use xlink:href="#a"/><use xlink:href="#b" x="6.996" y="13.001"/><use xlink:href="#4"/><use xlink:href="#5" y="2.171"/><use xlink:href="#6" y="4.342"/><use xlink:href="#7" y="6.513"/><use xlink:href="#8" y="8.684"/><use xlink:href="#9" y="10.855"/><text y="14.696" class="f">$</text><text x="2.004" y="14.696" class="f">./spo</text></svg><svg x="4704"><use xlink:href="#a"/><use xlink:href="#b" x="7.996" y="13.001"/><use xlink:href="#4"/><use xlink:href="#5" y="2.171"/><use xlink:href="#6" y="4.342"/><use xlink:href="#7" y="6.513"/><use xlink:href="#8" y="8.684"/><use xlink:href="#9" y="10.855"/><text y="14.696" class="f">$</text><text x="2.004" y="14.696" class="f">./spoo</text></svg><svg x="4851"><use xlink:href="#a"/><use xlink:href="#b" x="11.996" y="13.001"/><use xlink:href="#4"/><use xlink:href="#5" y="2.171"/><use xlink:href="#6" y="4.342"/><use xlink:href="#7" y="6.513"/><use xlink:href="#8" y="8.684"/><use xlink:href="#9" y="10.855"/><text y="14.696" class="f">$</text><text x="2.004" y="14.696" class="f">./spoon_q</text></svg><svg x="4998"><use xlink:href="#a"/><use xlink:href="#b" x="12.996" y="13.001"/><use xlink:href="#4"/><use xlink:href="#5" y="2.171"/><use xlink:href="#6" y="4.342"/><use xlink:href="#7" y="6.513"/><use xlink:href="#8" y="8.684"/><use xlink:href="#9" y="10.855"/><text y="14.696" class="f">$</text><text x="2.004" y="14.696" class="f">./spoon_q</text><text x="12.024" y="14.696" class="f">!</text></svg><svg x="5145"><use xlink:href="#a"/><use xlink:href="#b" x="13.996" y="13.001"/><use xlink:href="#4"/><use xlink:href="#5" y="2.171"/><use xlink:href="#6" y="4.342"/><use xlink:href="#7" y="6.513"/><use xlink:href="#8" y="8.684"/><use xlink:href="#9" y="10.855"/><text y="14.696" class="f">$</text><text x="2.004" y="14.696" class="f">./spoon_q</text><text x="12.024" y="14.696" class="f">!$</text></svg><svg x="5292"><use xlink:href="#a"/><use xlink:href="#b" x="38.996" y="13.001"/><use xlink:href="#4"/><use xlink:href="#5" y="2.171"/><use xlink:href="#6" y="4.342"/><use xlink:href="#7" y="6.513"/><use xlink:href="#8" y="8.684"/><use xlink:href="#9" y="10.855"/><use xlink:href="#10" y="13.026"/></svg><svg x="5439"><use xlink:href="#a"/><use xlink:href="#b" x="-.004" y="15.172"/><use xlink:href="#4"/><use xlink:href="#5" y="2.171"/><use xlink:href="#6" y="4.342"/><use xlink:href="#7" y="6.513"/><use xlink:href="#8" y="8.684"/><use xlink:href="#9" y="10.855"/><use xlink:href="#10" y="13.026"/></svg><svg x="5586"><use xlink:href="#a"/><use xlink:href="#b" x="-.004" y="26.027"/><use xlink:href="#4"/><use xlink:href="#5" y="2.171"/><use xlink:href="#6" y="4.342"/><use xlink:href="#7" y="6.513"/><use xlink:href="#8" y="8.684"/><use xlink:href="#9" y="10.855"/><use xlink:href="#10" y="13.026"/><use xlink:href="#11" y="15.197"/><use xlink:href="#12" y="17.368"/><use xlink:href="#13" y="19.539"/><use xlink:href="#14" y="21.71"/><use xlink:href="#15" y="23.881"/></svg><svg x="5733"><use xlink:href="#a"/><use xlink:href="#b" x="1.996" y="26.027"/><use xlink:href="#4"/><use xlink:href="#5" y="2.171"/><use xlink:href="#6" y="4.342"/><use xlink:href="#7" y="6.513"/><use xlink:href="#8" y="8.684"/><use xlink:href="#9" y="10.855"/><use xlink:href="#10" y="13.026"/><use xlink:href="#11" y="15.197"/><use xlink:href="#12" y="17.368"/><use xlink:href="#13" y="19.539"/><use xlink:href="#14" y="21.71"/><use xlink:href="#15" y="23.881"/><use xlink:href="#1" y="26.052"/></svg><svg x="5880"><use xlink:href="#a"/><use xlink:href="#b" x="-.004" y="28.198"/><use xlink:href="#4"/><use xlink:href="#5" y="2.171"/><use xlink:href="#6" y="4.342"/><use xlink:href="#7" y="6.513"/><use xlink:href="#8" y="8.684"/><use xlink:href="#9" y="10.855"/><use xlink:href="#10" y="13.026"/><use xlink:href="#11" y="15.197"/><use xlink:href="#12" y="17.368"/><use xlink:href="#13" y="19.539"/><use xlink:href="#14" y="21.71"/><use xlink:href="#15" y="23.881"/><use xlink:href="#1" y="26.052"/></svg></svg></g></g></svg></svg>